<?xml version="1.0" encoding="utf-8"?>
<!-- Generator: Adobe Illustrator 19.0.0, SVG Export Plug-In . SVG Version: 6.00 Build 0)  -->
<svg version="1.1" id="Laag_1" xmlns="http://www.w3.org/2000/svg" xmlns:xlink="http://www.w3.org/1999/xlink" x="0px" y="0px"
	 viewBox="0 0 595.3 595.3" style="enable-background:new 0 0 595.3 595.3;" xml:space="preserve">
<style type="text/css">
	.st0{fill:url(#SVGID_1_);}
	.st1{fill:url(#SVGID_2_);}
	.st2{opacity:7.000000e-02;}
	.st3{fill:#6A8334;}
	.st4{fill:#607535;}
	.st5{fill:#567632;}
	.st6{fill:#5B792B;}
	.st7{fill:#BED172;}
	.st8{fill:#4E6032;}
	.st9{fill:#32501A;}
	.st10{fill:#1C370A;}
	.st11{fill:#A1B074;}
	.st12{fill:#56762D;}
	.st13{fill:#A5C955;}
	.st14{fill:#B4CB68;}
	.st15{fill:#C5D678;}
	.st16{fill:#AFBE7C;}
	.st17{fill:#729339;}
	.st18{fill:#ADCA4B;}
	.st19{fill:#92AD56;}
	.st20{fill:#3C5D1B;}
	.st21{fill:#C8DD93;}
	.st22{fill:#A2B765;}
	.st23{fill:#71873A;}
	.st24{fill:#D8E3A8;}
	.st25{fill:#84A15A;}
	.st26{fill:#84A161;}
	.st27{fill:#49662C;}
	.st28{fill:#ABCB7B;}
	.st29{fill:#405E2C;}
	.st30{fill:#627744;}
	.st31{fill:#425D24;}
	.st32{fill:#869C52;}
	.st33{fill:#949E7F;}
	.st34{fill:#809653;}
	.st35{fill:#86A853;}
	.st36{fill:#C4D092;}
	.st37{fill:#76913F;}
	.st38{fill:#8CA054;}
	.st39{fill:#E3E6C1;}
	.st40{fill:#DFE8B1;}
	.st41{fill:#3A5812;}
	.st42{fill:#D4E267;}
	.st43{fill:#C1CD8F;}
	.st44{fill:#DCEEA6;}
	.st45{fill:#7F9647;}
	.st46{fill:#4B6829;}
	.st47{fill:#52751E;}
	.st48{fill:#4C6C15;}
	.st49{fill:#537524;}
	.st50{fill:#8FA956;}
	.st51{fill:#8FAF51;}
	.st52{fill:#40631E;}
	.st53{fill:#AACF6A;}
	.st54{fill:#839E3F;}
	.st55{fill:#B1C47C;}
	.st56{fill:#6F8A31;}
	.st57{fill:#98A95D;}
	.st58{fill:#A5B356;}
	.st59{fill:#95AD46;}
	.st60{fill:#DDECA3;}
	.st61{fill:#1B380A;}
	.st62{fill:#78933C;}
	.st63{fill:#304B0D;}
	.st64{fill:#9FBD50;}
	.st65{fill:#8EB043;}
	.st66{fill:#648536;}
	.st67{fill:#7F943F;}
	.st68{fill:#699534;}
	.st69{fill:#617E40;}
	.st70{fill:#A8C459;}
</style>
<linearGradient id="SVGID_1_" gradientUnits="userSpaceOnUse" x1="332.5855" y1="161.7864" x2="308.5855" y2="209.7864">
	<stop  offset="0" style="stop-color:#E247E2"/>
	<stop  offset="0.9967" style="stop-color:#FFFFFF;stop-opacity:0"/>
</linearGradient>
<polygon class="st0" points="166,158.6 383.8,201.9 441,281.4 326.6,295.6 "/>
<linearGradient id="SVGID_2_" gradientUnits="userSpaceOnUse" x1="166.7288" y1="227.858" x2="441.7288" y2="227.858">
	<stop  offset="0" style="stop-color:#FFE736"/>
	<stop  offset="0.9956" style="stop-color:#15CE87"/>
</linearGradient>
<polygon class="st1" points="166.7,159.4 384.5,202.7 441.7,282.1 327.3,296.4 "/>
<ellipse class="st2" cx="330.6" cy="253" rx="34.7" ry="12.7"/>
<g>
	<path class="st3" d="M376.8,207.2c0.6,0.3,1.3,0.6,1.9,1c0,1.7,0,3.3,0,5c-1.7,2.6-4.9,3.1-7,5.1c-1.6,0.2-3.3-0.1-4.3,1.6
		c0.8,1.1,1.8-0.6,2.6,0.3c-0.9,2,2.3,5.3-2.1,6.1c-1.6,0.5-4.3-1.9-4.6,1.8c-0.2,0.1-0.4,0.2-0.6,0.3c-0.6,0.3-1.3,0.5-1.9,0.8
		c-1.7,1-2.6,0.1-3.4-1.3c-1.5-2.4-0.2-4.7,0.2-7c0.7-0.7,1.7-1.3,1.8-2.4c0.1-0.4,0.4-0.8,0.8-1c0.6-0.3,1.3-0.4,1.9-0.5
		c2.7-1,5.1-2.5,8.3-2.7C374.6,214.3,374.9,209.9,376.8,207.2z"/>
	<path class="st4" d="M341.7,224.2c-0.6,0-0.9-0.3-1-0.9c-1.9-3.3-4.9-5.3-8.5-6.4c-1.1-1-2-2.1-2.6-3.5c-0.7-2.7-0.5-5.4,0.7-7.9
		c1.2-0.8,1.7,0.2,2.2,1c3.5,5.4,3.7,5.5,9.5,2.3c0.8-0.5,1.6-1,2.6-1c5.5,2.3,10.2,5.8,15,9c0.2,0.4,0.3,0.9,0.1,1.4l-0.2,0.3
		c-2,2-4.7,2.2-7.2,2.6c-2,0.3,0.5,0.7-0.1,0.9c0.4,1.2,0.3,2.4-0.2,3.5c-1.3,1.7-2.8,1.9-4.5,0.6c-1.2-1.1-1.1-4.5-4.2-2.3
		C343,223.9,342.4,224.2,341.7,224.2z"/>
	<path class="st5" d="M350.5,239.2c3.9,5.3,3.3,9.4-1.9,13.9c-1,0.9-2.1,0.9-2.9-0.2c-0.4-0.6,0.5-3.2-1.2-0.6
		c-1.6,2.4-3.6,2.5-5.9,1c-3.9-3.1-6.1-6.6-2.1-11.2c1.5-1.2,2.5-3.1,4.8-3.1c1.9,0,3.9,0.3,5.7-0.8
		C348.3,237.4,349.8,237.1,350.5,239.2z"/>
	<path class="st6" d="M344.9,208.2c-0.7,0.3-1.4,0.7-2.1,1c-0.9-0.1-1.6-0.5-2.2-1.1c-2.6-3.2-5.7-4.9-9.9-4
		c-4.6,3.7-8.9,7.6-12.1,12.6c-0.6,1.1-1.4,2-2.8,2c-4.5-2.9-4.6-4.1-0.9-7.6c1.4-1.4,3-2.5,4.8-3.4c2.5-1.3,3.2-3.6,3.4-6.2
		c0.1-1,0.3-1.8,0.8-2.7c0.3-0.4,0.6-0.7,1-0.9c1.7,0.1,3.5,0.9,5.1-0.4c4-1.4,8.2-0.2,12.3-1c3.5,1.2,1.2,4.6,2.4,6.6
		c1.1,1.5,3.4-0.1,4.3,1.8C348.3,207,344.7,205.1,344.9,208.2z"/>
	<path class="st7" d="M335.8,182.3c-1.5,2.3-3.1,4.6,0,6.9c0.8,1,0.5,1.8-0.5,2.4c-3.8,0.2-4.9-3.5-8.1-5.4c0.7,3.6,0.9,6.9-3.7,7.3
		c-2.2-0.6-4.7-0.6-5.9-3.1c2.3-2.2,1.1-3.7-1.1-4.9c-1.2-1.6-2.2-3.2-2.1-5.2c0.3-0.7,0.7-1.2,1.4-1.6c1.8-0.7,3.3-0.1,4.4,1.3
		c1.3,1.6,0.9-0.2,1.3-0.6c1.8-1.4,3.2,1.3,5,0.5c1.9,0.2,2.6,2.9,4.8,2.4c0.8-0.5,1.4-1.5,2.6-1.5
		C334.6,181,335.4,181.4,335.8,182.3z"/>
	<path class="st8" d="M376.8,207.2c-0.2,6.1-2.8,9.2-8.7,8.7c-2.9-0.2-3.4,4.7-6.5,2.1c-1.5-4.4,0-6.9,5.2-8.9
		C370,207.1,372.5,202.3,376.8,207.2z"/>
	<path class="st9" d="M367,209.1c-1.7,3-6.1,4.4-5.2,8.9c-0.6,0-1.2-0.1-1.8-0.1c-0.1-0.3-0.1-0.6-0.1-0.8
		c-0.2-3.7-0.8-7.2-3.2-10.2c-1.6-2.1,0.2-4.5-0.7-6.7c-0.1-0.9,0.3-1.5,1-2c2.9,0.3,6.1-1.2,8.8,1
		C367.4,202.4,366.9,205.8,367,209.1z"/>
	<path class="st10" d="M355.9,200.2c1-0.4,2.4-0.5,1.7,1c-1.4,2.9-0.3,5.1,1.4,7.2c2.3,2.8,2.5,5.6,0.9,8.7
		c-5.3-2.4-10.2-5.5-14.9-9c-0.6-0.9-1.2-1.8-2.2-3.1c2.3,0,4.3,0,6.3,0c1.7,1.5,3.3,3.1,5.4,5C354.9,206.6,353.5,203,355.9,200.2z"
		/>
	<path class="st11" d="M299.8,227.3c5.7-1.3,11.7-1.4,16.8-4.9c1.8,3.5-2.8,3.7-3.1,6.1c-0.2,0.8-0.5,1.6-0.9,2.4
		c-0.4,0.8-0.9,1.5-1.3,2.3c-1.9,2.8-0.8,6.2-1.7,9.2c-0.2,0.4-0.5,0.8-0.9,1c-0.8-3.6-4.2-4.6-6.7-6.3c-1.6-2.1-3.1-4.3-0.7-6.8
		c1.5-1,3.2,0,5.2-0.6c-2.2-0.4-4.1-0.2-6,0C299.4,229,299,228.3,299.8,227.3z"/>
	<path class="st12" d="M334.9,222.9c2,6.8,3.6,13.6-4.1,18.2c-1.9-0.4-2.8-1.6-2.4-3.6c1.5-3.6-1.8-4.9-3.4-7.1
		c-0.9-0.6-0.9-1.5-0.5-2.4c1.9-1.2,3.6-2.7,5.8-3.2C332.4,225.5,333.4,223.4,334.9,222.9z"/>
	<path class="st13" d="M330.7,225.2c-1.8,1.1-2.9,3.6-5.6,3.2c-0.7,0.3-1.3,0.7-2.1,0.7c-2.3-0.2-3.9-1.6-5.2-3.4
		c-0.8-1.1,0.4-2.5-0.5-3.5c-0.6-1-1.1-2-1.7-3c-0.3-0.2-0.4-0.4-0.4-0.7c0.1-0.3,0.1-0.4,0.2-0.4c1.1-0.3,1.7-1,2.2-2
		c0.7-0.9,1.1-2.1,1.9-2.8c1.2-1,2.5-2.5,4.2-1.2c2,1.4,0.6,2.8-0.1,4.2c-0.1,1.4-4.3,2.1-0.6,4c2.9,0.8,6.4-0.9,8.9,2
		C332.5,223.7,332.1,224.7,330.7,225.2z"/>
	<path class="st14" d="M303.5,218.2c-2.6,0.1-4.8-2.1-7.4-0.5c-0.8-2.9,1.3-4.4,1.9-6.4c1.4-1,2.4-2.7,4.2-3.1
		c2.1-0.4,4.1,0,6.1,0.5c1.9,0.3,4.1-0.1,5.7,1.6c0.4,1,0.3,2.2-0.8,2.3c-4.8,0.3-1.7,2.4-1.1,4c-2.2,3.1-5,1.2-7.3,0.5
		C302.9,216.6,304.2,218.3,303.5,218.2z"/>
	<path class="st15" d="M315.8,179.2c-0.3,0.3-0.6,0.6-0.9,1c-2.6-1.6-2.2-4.5-3.1-7.1c-0.4,1.5,0.6,3.4-1.2,4.4
		c-1.7-4.3-1-8.2,1.3-12.1c3.4,0.8,1,3.5,1.6,5.2c-0.2-1.7,0.3-2.5,2.1-2.3c0,1.8,0.9,3,2,4.3c1.8,2.1,3.4,2.9,5.3,0.1
		c0.7-1,1.8-1.8,2.7-2.7c2.9,0.5,1.3,2.8,1.6,4.3c-0.6,1.7-2.9,3-1.5,5.3c0,0.2,0,0.4,0,0.7c-2.1,2.8-2.5-1.5-4-1
		C319.7,180.2,317.7,176.1,315.8,179.2z"/>
	<path class="st16" d="M330.7,163.2c3.8-5.1,5.2-5.5,13-2.8c-9.9,2-7.3,9.5-7.8,15.6c0,1.5,0,2.9-1.9,3.4c-1.2-0.5-1.4-1.8-2.1-2.7
		c-0.7-1.2-1.5-2.4-1.7-3.8c0.1-2,1-3.7,1.5-5.6C332.2,165.6,332.9,164.1,330.7,163.2z"/>
	<path class="st17" d="M341.8,240.2c-2.2-0.4-3.5,1.4-5.3,2c1.5-2.5,2.5-5.4,5.3-7c2.6-0.4,4.2-1.9,4.8-4.4c3.4-3,9.4-2.8,12.3,0.6
		c-0.7,0.6-1.3,1.3-2,1.9c-2,0.6-4.3,0.6-4.9,3.4c0.1,0.3,0,0.5-0.2,0.7C347.9,236.7,345,239,341.8,240.2z"/>
	<path class="st18" d="M310.6,177.4c0.1-1.6,0.2-3.3,0.3-5.2c4,1.5,2.4,5.5,4,8c0.6,1.7,1.3,3.4,1.9,5.1c2,1.8,1.3,3.3-0.5,4.6
		c-1.8,1.1-3.4,2.7-5.7,2.8c-1.7-0.4-3.5-0.8-3.3-3.1c0.2-0.7,0.6-1.3,1.2-1.7c3.8-1,4.3-3.4,2.5-6.6
		C310.8,180,310.7,178.7,310.6,177.4z"/>
	<path class="st19" d="M358.8,231.2c-4.1-0.4-8.4-3.7-12,0.9c-0.7,0.6-1.4,0.6-2.1,0.1c0.6-3.2-1.2-5.6-2.9-8c0.3-0.3,0.7-0.7,1-1
		c2.3-0.8,4.2-0.7,5.1,2c1.3,0.9,2.6,1,3.9,0c1.5,2.1,4.8-1,6,2c0.6,1.3,1.7,1.8,3.1,2C360.1,229.9,359.4,230.6,358.8,231.2z"/>
	<path class="st20" d="M311.3,216.3c-1.9-0.3-3.4-1.9-2.9-3.3c0.8-2.6,3.9-0.1,5.4-1.7c0.4-1.2,0.3-2.5,1-3.6
		c0.4-0.8,0.8-1.6,1.3-2.2c2.3-1.7,4.3-4,7.4-4.3c1.2,3.6-0.1,6.4-3.5,7.8c-1.8,0.7-2.9,2.1-4.3,3c-3.6,2.2-2.5,4.1-0.2,6.2
		c0,0.4,0.1,0.7,0.1,1.1c-0.6-0.1-1.3-0.2-1.9-0.2C312.6,218.4,312.3,217,311.3,216.3z"/>
	<path class="st21" d="M307.9,189.3c-0.2,2.2,2.5,1.4,3,2.9c-0.9,3.7-3.3,6.7-4.4,10.2c-1.4,2.3-3.2,4.4-4.7,6.7
		c-1.3,0.7-2.6,1.4-3.8,2.1c3-6.6,4.6-13.9,8.7-20C306.2,190.1,305.9,189,307.9,189.3z"/>
	<path class="st22" d="M334.8,191.3c0.8-0.5,1-1.2,1-2.1c0.4,0.2,0.7,0.4,1.1,0.6c0.8,1.1,2.5,1.1,2.9,2.8c1.3-1.5,2.3-3,3.5-4.1
		c1.5-0.5,2.9-0.5,3.8,1c0.2,2.5-0.3,5.1,0.5,7.6c-0.5,2.2-3.5,3.2-2.9,6c-2-1.5,0.2-5.1-3-5.9c-2.1-0.6-3.9-1.7-5.4-3.3
		C335.6,193.1,334.3,192.7,334.8,191.3z"/>
	<path class="st23" d="M333.9,179.4c1.1-0.9,0.4-2.7,1.9-3.3c4.2,0,8.4,0,12.6,0c0.1,0.3,0.1,0.6,0.2,0.9c-4.3,1.8-8.6,3.6-12.9,5.4
		c-0.9-0.1-1.7-0.2-2.2-1.2C333.2,180.5,333.3,179.8,333.9,179.4z"/>
	<path class="st24" d="M330.7,163.2c1.4,1.5,2-1.7,3.6-0.3c-1.2,3.2-1.3,7-3.6,10.1c-0.5,1.2-1.6,1.4-2.7,1.7
		c-0.5,0-0.9-0.1-1.2-0.4c-2-1,1.1-3.3-1.1-4.2C327.6,167.9,329.5,165.8,330.7,163.2z"/>
	<path class="st25" d="M338.6,253.3c2-0.3,4.6,0.9,5.2-2.7c0.2-1.2,2.3-1.6,2.6-1.6c3.7,1.1-3.4,4.2,2.2,4.1
		C343,258.6,341.4,258.6,338.6,253.3z"/>
	<path class="st26" d="M319.8,246.2c-0.9,3.4-3.7,3.2-6.2,2.9c-3.4-0.4-4.6-2.8-4.9-5.8c0.2-0.1,0.3-0.1,0.5-0.2
		c0.5-0.1,0.9-0.1,1.3,0.2c2.6,2.6,4.9-0.5,7.3-0.5c0.5,0,0.9,0.1,1.3,0.3C319.8,243.9,320.4,244.9,319.8,246.2z"/>
	<path class="st27" d="M365.7,199.2c-1.3,0.6-2.7-1.2-4.3,0.8c-1.7,2.2-2.3-2.7-4.5-1.8c1.2-3,3.6-3.6,6.4-3.1
		C365.4,195.5,366.1,197.1,365.7,199.2z"/>
	<path class="st28" d="M322.3,228.4c0.9,0,1.9,0,2.8,0c-0.2,0.8-0.3,1.5,0.4,2.1c1.9,1.9,3.2,4,3.3,6.8c0,1.6,1.3,2.6,2,3.8
		c-0.6,0.8-0.8,2-2.1,2.1c-1.5-1.2-2-3.1-3-4.7C324.2,235.2,322,232.2,322.3,228.4z"/>
	<path class="st29" d="M311.3,216.3c1.5,0.2,2.3,1.2,2.4,2.7c-3.4,0.1-6.9,0-10.3-0.8c0.4-0.6-2.1-1.4,0.3-1.9
		C306.3,215.8,308.8,217.9,311.3,216.3z"/>
	<path class="st30" d="M345.7,185.2c1.3-1.8,2.6-3.6,4.2-6c1.1,2.8,0.7,4.9-0.3,7c-0.8,1.1-1.4,3-3.2,2.3
		C344.7,187.9,345.4,186.4,345.7,185.2z"/>
	<path class="st31" d="M326.7,238.3c1.2,1.4,2.1,3,2,4.9c-1,0-1.9,0.2-2.5,1.2c-1.6,0.5-3.2,0.6-4.5-0.7
		C320.5,239.2,324,239,326.7,238.3z"/>
	<path class="st32" d="M342.8,189.2c2.4,2.1-3.2,3.2-0.6,5.5c-2.7-0.7-4.4-2.5-5.4-4.9c1.3-0.5,2.7-1,4-1.4
		C341.5,188.7,342.4,188.4,342.8,189.2z"/>
	<path class="st33" d="M365.5,230.1c-1.3,3.1-2.6,6.2-4.3,10.3c-1-4.9,1.7-8.2,1.5-11.9c0,0,0-0.5,0-0.5
		C364.4,227.7,365.1,228.7,365.5,230.1z"/>
	<path class="st34" d="M370.1,220.2c-1.5-0.3-0.8,3.5-3.1,1.7c-0.7-0.6-2.2-1-1.6-2.1c0.7-1.2,1.6-2.5,3.3-2.6
		c1.2,0,2.3-0.1,3.1,1.1C371.5,219.2,371,219.9,370.1,220.2z"/>
	<path class="st35" d="M341.8,240.2c2.8-2.5,5.4-5.6,9.8-3c-0.4,0.7-0.8,1.4-1.2,2c-1.4-1-2.6-0.9-3.7,0.5
		C345.3,241.6,343.4,239.8,341.8,240.2z"/>
	<path class="st36" d="M301.7,230.3c-1.9,2.3,0.2,4.5,0.2,6.7c-4.6-3-5.1-5.3-2.1-9.7c0,0.8,0.2,1.5,1,1.9
		C301.3,229.3,301.6,229.7,301.7,230.3z"/>
	<path class="st37" d="M342.8,189.2c-0.7-0.3-1.3-0.6-2-0.8c1.6-1.1,3.3-2.2,4.9-3.2c0.3,3.8,2,2.8,3.9,1.1
		c-0.3,1.6-0.6,3.3-0.9,4.9c-1.1,0.5-1.6-0.1-1.8-1.1C345.7,188.7,344.2,189.3,342.8,189.2z"/>
	<path class="st38" d="M365.5,230.1c-0.9-0.7-1.8-1.4-2.8-2.1c1.4-1.6-0.8-3.4,0.6-5.3c1.6,1.2,2.7,3.1,4.7,3.6
		C367.1,227.6,366.3,228.9,365.5,230.1z"/>
	<path class="st39" d="M307.9,189.3c-1,0.3-1.1,1.1-1.2,2c-2.8-1.8-2.1-3.6,0.1-5.4c1.3-1,2.6-1.9,3.9-2.8c1.7,2.5-0.3,3.8-1.8,5.1
		C308.5,188.6,308.2,188.9,307.9,189.3z"/>
	<path class="st40" d="M315.6,168.3c-1.5,0.4-1.6,1.9-2.4,3c-1.2-1.9,0.5-4.4-1.3-6c0.4-1.5,1.4-2.6,2.8-1.9
		C316.7,164.5,315.5,166.6,315.6,168.3z"/>
	<path class="st41" d="M330.7,225.2c0.3-1,0.6-2,0.9-2.9c-0.9-1.3-0.8-2.5,0.6-3.4c1.3-0.4,2,0.3,2.5,1.4c0.1,0.9-0.6,1.9,0.3,2.7
		C333.3,226.3,332.3,226.8,330.7,225.2z"/>
	<path class="st42" d="M308.9,188.3c0.3-1.8,2.1-3.1,1.8-5.1c0.1-0.6,0.2-1.3,0.3-1.9C315.4,186,315.1,186.8,308.9,188.3z"/>
	<path class="st43" d="M346.9,190c0.6,0.4,1.2,0.7,1.8,1.1c-0.1,2.1,0.9,4.3-1.1,6.1C344.4,195.1,345.5,192.6,346.9,190z"/>
	<path class="st44" d="M317.4,222.2c3.9,0.5,1.1,2,0.5,3.2c0,0.2-0.1,0.5-0.1,0.7c-1.1,2-2.4,3.5-5,2.3c-1-3.4,4.4-2.7,3.8-5.9
		C316.8,222.2,317.1,222.1,317.4,222.2z"/>
	<path class="st45" d="M334.7,220.2c-0.7-0.4-1.4-0.8-2.1-1.2c-0.7-0.9-0.7-1.9,0.1-2.7c3.6,1.3,7,2.8,8,7c-1.6-1.5-3-3.2-4.7-4.4
		C334.3,217.6,335.1,219.7,334.7,220.2z"/>
	<path class="st46" d="M321.7,243.2c1.5,0.4,3,0.8,4.5,1.2c-1.7,2-4,2.2-6.4,1.8c-0.4-0.9-0.8-1.9-1.1-2.8
		C319.6,242.3,320.6,242.4,321.7,243.2z"/>
	<path class="st47" d="M344.7,232.2c0.7,0,1.4,0,2.1-0.1c-0.2,2.5-3.1,4.2-5,3C342.5,233.9,343.3,232.8,344.7,232.2z"/>
	<path class="st48" d="M351.9,236.5c-1-4.9,2.3-3.6,4.9-3.4C355.8,235.2,353.2,235,351.9,236.5z"/>
	<path class="st49" d="M357.7,227.2c-0.8-0.2-2-0.8-2.2-0.6c-3.6,5.2-2.5-1.2-3.8-1.5c0-1.3,0-2.7,0-4c2-0.4,4-1.6,5.9,0.1
		c0,1,3.9,1.4,0.4,2.9C356,225,359.4,226.5,357.7,227.2z"/>
	<path class="st50" d="M357.7,221.3c-2,0-4-0.1-5.9-0.1c-0.2,0-0.4,0-0.5-0.1c-0.2-0.2-0.3-0.4-0.5-0.6c3-0.7,6-1.5,9-2.2
		c0.4,0.8,2.1,1,1.5,2.2C360.5,221.9,358.9,221,357.7,221.3z"/>
	<path class="st51" d="M322.7,216.2c-0.6-1.4,2.3-2.1,0.9-3.3c-1.5-1.2-2.7,0.2-3.7,1.3c-0.7,0.7-1.4,1.3-2.1,2
		c0.2-1.7,0.9-3.1,2.4-4.1c3.4-2.1,6.1-4.8,7.6-8.6c0.8-1.8,1.9-1.5,3-0.3c0.6,0.7,0.6,1.3,0,2c0,2.7-0.1,5.4-0.1,8.1
		c-2,1.8-3.5,4.6-6.9,3.9C323.4,216.9,323.1,216.6,322.7,216.2z"/>
	<path class="st52" d="M330.8,205.2c0-0.7,0-1.3,0-2c6.1-2.2,8.9,2.2,12,6C336.1,214,333.9,213.7,330.8,205.2z"/>
	<path class="st53" d="M323.9,216.4c3,0.5,3.9-3.3,6.8-3.1c0.7,1,1.4,2,2,3c0,0.9-0.1,1.8-0.1,2.7c-1.2,0.8-0.8,2.1-1,3.3
		c-2.8-2-6.2,1.3-8.9-1C322,219.3,322.6,217.8,323.9,216.4z"/>
	<path class="st45" d="M347.8,225.2c-1.2-1.8-3.6-0.8-5.1-2c0.8-1.5,2-2.2,3.7-1.8C348.4,222,347.5,223.8,347.8,225.2z"/>
	<path class="st54" d="M334.8,191.3c0.7,0.6,1.4,1.2,2.1,1.9c-1.7,2.6-3.8,4.7-7.1,5.1c-1.5,3.9-3.2,0.9-4.8,0.1
		c-1.7-1.3-1.9-3.1-1.3-5c4.9-1.9,1.2-6.2,2.6-9.6C329.2,186.3,332,188.8,334.8,191.3z"/>
	<path class="st55" d="M315.7,192.2c0.1,3.1-1,7.5,0.6,9.1c1.7,1.6,4.9-3.2,8.3-2.2c-0.3,0.7-0.7,1.4-1,2.1
		c-2.3,1.7-4.6,3.4-6.9,5.1c-0.6,0.5-1.2,0.7-2,0.3c-1-1.1,0.1-2.7-0.8-3.9c-0.5-2.4-1-4.8-1-7.3
		C313.4,193.8,313.6,192.1,315.7,192.2z"/>
	<path class="st56" d="M329.8,198.2c3.2-0.5,3.4-5.2,7.1-5.1c1.6,1.4,3.2,2.7,4.8,4.1C337.8,198.9,333.7,197.8,329.8,198.2z"/>
	<path class="st57" d="M327.6,174.1c0.8-1,2-0.8,3-1.1c0.7,1.1,1.4,2.2,2.2,3.3c0.7,2.4-0.3,4.6-1,6.9c-0.1,1.2-0.5,1.9-1.8,0.9
		c-1.5-1.2-2.9-2.5-4.3-3.8c0,0,0.1-0.3,0.1-0.3C325.8,177.8,327.7,176.3,327.6,174.1z"/>
	<path class="st58" d="M315.8,179.2c1.1-3.8,1.1-3.8,6,0c-0.2,1.5,1.8,2.9,0.1,4.8C319.6,182.5,319.5,178.4,315.8,179.2z"/>
	<path class="st59" d="M317.8,190.2c-0.4,0-0.8-0.1-1.2-0.1c-0.5-0.1-0.8-0.4-1-0.9c1.5-1,1.5-2.4,1-3.9c1.7,0.3,3.7,0.4,4,2.7
		C321,190.1,319.3,190.1,317.8,190.2z"/>
	<path class="st60" d="M331.8,183.1c-0.1-2.4,0.2-4.7,1-6.9c1.4,0.7,0.9,2,1.2,3.1c-0.1,0.6-0.3,1.2-0.4,1.8
		C333,181.8,332.4,182.5,331.8,183.1z"/>
	<path class="st61" d="M321.7,243.2c-1,0.1-2,0.1-3.1,0.2c0,0-0.4,0-0.4,0l-0.4,0c-1.3,0.2-1.7-0.8-2-1.7c-0.2-1.6-1.1-2.6-2.6-3.2
		c-3-1.2-3.8-3.3-2.4-6.3c0.4-0.6,0.8-1.3,1.2-1.9c2.2-1.3,5.2-1.6,6-4.7c0,0,0-0.3,0-0.3c1.5,1,3,2,4.4,3c1.5,3.3,2.9,6.6,4.4,9.9
		C326,240.9,321.6,239.7,321.7,243.2z"/>
	<path class="st31" d="M310.7,232.2c-0.3,3,0.7,5.6,4,5.7c3.1,0.1,1.7,2.1,2,3.4c-1.9,2.3-4.2,3.1-7,2.1c-0.2-0.1-0.4-0.1-0.6-0.2
		C309,239.3,307.4,235.4,310.7,232.2z"/>
	<path class="st62" d="M301.7,230.3c-0.3-0.3-0.6-0.7-0.9-1c2.5-2,5.7-0.3,8.4-1.4C307.8,232,304.9,231.6,301.7,230.3z"/>
	<path class="st31" d="M317.9,225.6c0.4,4.7-2.6,4.9-6,4.7c0.3-0.7,0.6-1.3,0.8-2C314.5,227.4,316.2,226.5,317.9,225.6z"/>
	<path class="st63" d="M328.8,237.2c-1.1-2.3-2.2-4.5-3.3-6.8c3.3,0.9,4.1,4,5.1,6.6C330.9,237.9,329.5,237.3,328.8,237.2z"/>
	<path class="st64" d="M323.9,216.4c0,1.7-0.2,3.3-1.2,4.8c-1.6,0-2.7-0.8-3.4-2.4c1.1-0.9,2.3-1.7,3.4-2.6
		C323.1,216.3,323.5,216.3,323.9,216.4z"/>
	<path class="st65" d="M314.8,206.1c0.6,0,1.2,0.1,1.8,0.1c-0.3,0.6-0.7,1.3-1,1.9c-2.4,1.4-5.6-0.2-7.8,2c-1.9-1-4-0.9-6-1
		c-0.9-3.5,2.6-4.6,3.7-7c3.3-1.7,4.3-5.9,8.1-7c1,2.6,1.1,5.3,1.1,8c-1,1.3-1.8,2.8-3.8,2.4C312.2,205.9,313.7,205,314.8,206.1z"/>
	<path class="st66" d="M307.8,210.1c1.7-4.1,4.9-2.8,7.8-2c-0.6,1-1.2,2.1-1.8,3.1C312.1,209.3,309.8,210.7,307.8,210.1z"/>
	<path class="st67" d="M327.6,174.1c1.7,2.7,0.2,4.4-1.8,5.9c-5-2.7-1.3-4.1,0.9-5.8C327,174.1,327.3,174.1,327.6,174.1z"/>
	<path class="st68" d="M313.7,195.2c-2.7,2.4-3.6,6.8-8.1,7c1.3-3.6,2.5-7.2,5.4-10c1.6-1,3.2-2,4.9-3.1c0.3,0.3,0.6,0.6,1,0.9
		c-0.3,0.7-0.6,1.5-1,2.2C315,193.2,314.4,194.2,313.7,195.2z"/>
	<path class="st69" d="M309.7,243.3c2.3-0.7,4.7-1.4,7-2.1c0.4,0.7,0.7,1.4,1.1,2.1C315.1,243.3,312.3,249.8,309.7,243.3z"/>
	<path class="st70" d="M314.8,206.1c-1.6,0-3.2,0-5.6,0c2.2-1.2,3.9-2,5.5-2.9C316,204.1,314.4,205.1,314.8,206.1z"/>
</g>
</svg>
