<?xml version="1.0" encoding="utf-8"?>
<!-- Generator: Adobe Illustrator 19.0.0, SVG Export Plug-In . SVG Version: 6.00 Build 0)  -->
<svg version="1.1" id="Laag_1" xmlns="http://www.w3.org/2000/svg" xmlns:xlink="http://www.w3.org/1999/xlink" x="0px" y="0px"
	 viewBox="0 0 595.3 595.3" style="enable-background:new 0 0 595.3 595.3;" xml:space="preserve">
<style type="text/css">
	.st0{fill:url(#SVGID_1_);}
	.st1{fill:url(#SVGID_2_);}
	.st2{opacity:7.000000e-02;}
	.st3{fill:#6A8334;}
	.st4{fill:#607535;}
	.st5{fill:#567632;}
	.st6{fill:#5B792B;}
	.st7{fill:#BED172;}
	.st8{fill:#4E6032;}
	.st9{fill:#32501A;}
	.st10{fill:#1C370A;}
	.st11{fill:#A1B074;}
	.st12{fill:#56762D;}
	.st13{fill:#A5C955;}
	.st14{fill:#B4CB68;}
	.st15{fill:#C5D678;}
	.st16{fill:#AFBE7C;}
	.st17{fill:#729339;}
	.st18{fill:#ADCA4B;}
	.st19{fill:#92AD56;}
	.st20{fill:#3C5D1B;}
	.st21{fill:#C8DD93;}
	.st22{fill:#A2B765;}
	.st23{fill:#71873A;}
	.st24{fill:#D8E3A8;}
	.st25{fill:#84A15A;}
	.st26{fill:#84A161;}
	.st27{fill:#49662C;}
	.st28{fill:#ABCB7B;}
	.st29{fill:#405E2C;}
	.st30{fill:#627744;}
	.st31{fill:#425D24;}
	.st32{fill:#869C52;}
	.st33{fill:#949E7F;}
	.st34{fill:#809653;}
	.st35{fill:#86A853;}
	.st36{fill:#C4D092;}
	.st37{fill:#76913F;}
	.st38{fill:#8CA054;}
	.st39{fill:#E3E6C1;}
	.st40{fill:#DFE8B1;}
	.st41{fill:#3A5812;}
	.st42{fill:#D4E267;}
	.st43{fill:#C1CD8F;}
	.st44{fill:#DCEEA6;}
	.st45{fill:#7F9647;}
	.st46{fill:#4B6829;}
	.st47{fill:#52751E;}
	.st48{fill:#4C6C15;}
	.st49{fill:#537524;}
	.st50{fill:#8FA956;}
	.st51{fill:#8FAF51;}
	.st52{fill:#40631E;}
	.st53{fill:#AACF6A;}
	.st54{fill:#839E3F;}
	.st55{fill:#B1C47C;}
	.st56{fill:#6F8A31;}
	.st57{fill:#98A95D;}
	.st58{fill:#A5B356;}
	.st59{fill:#95AD46;}
	.st60{fill:#DDECA3;}
	.st61{fill:#1B380A;}
	.st62{fill:#78933C;}
	.st63{fill:#304B0D;}
	.st64{fill:#9FBD50;}
	.st65{fill:#8EB043;}
	.st66{fill:#648536;}
	.st67{fill:#7F943F;}
	.st68{fill:#699534;}
	.st69{fill:#617E40;}
	.st70{fill:#A8C459;}
</style>
<linearGradient id="SVGID_1_" gradientUnits="userSpaceOnUse" x1="183.7879" y1="246.002" x2="386.8568" y2="395.3174">
	<stop  offset="0" style="stop-color:#FFF76A;stop-opacity:0.9628"/>
	<stop  offset="0.5435" style="stop-color:#F3E772;stop-opacity:0.964"/>
	<stop  offset="1" style="stop-color:#00D437"/>
	<stop  offset="1" style="stop-color:#4C00E9"/>
</linearGradient>
<polygon class="st0" points="87.6,215.2 338.6,290.2 419.5,399.1 276.1,383.6 "/>
<linearGradient id="SVGID_2_" gradientUnits="userSpaceOnUse" x1="307.6302" y1="247.8435" x2="248.2593" y2="313.0542">
	<stop  offset="0" style="stop-color:#FFF76A;stop-opacity:0.9628"/>
	<stop  offset="0" style="stop-color:#4C00E9"/>
	<stop  offset="1" style="stop-color:#F3E772;stop-opacity:0"/>
	<stop  offset="1" style="stop-color:#00D437"/>
</linearGradient>
<polygon class="st1" points="87.6,215.3 338.6,290.2 419.5,399.2 276.1,383.7 "/>
<ellipse class="st2" cx="292.3" cy="322" rx="34.7" ry="12.7"/>
<g>
	<path class="st3" d="M338.6,276.2c0.6,0.3,1.3,0.6,1.9,1c0,1.7,0,3.3,0,5c-1.7,2.6-4.9,3.1-7,5.1c-1.6,0.2-3.3-0.1-4.3,1.6
		c0.8,1.1,1.8-0.6,2.6,0.3c-0.9,2,2.3,5.3-2.1,6.1c-1.6,0.5-4.3-1.9-4.6,1.8c-0.2,0.1-0.4,0.2-0.6,0.3c-0.6,0.3-1.3,0.5-1.9,0.8
		c-1.7,1-2.6,0.1-3.4-1.3c-1.5-2.4-0.2-4.7,0.2-7c0.7-0.7,1.7-1.3,1.8-2.4c0.1-0.4,0.4-0.8,0.8-1c0.6-0.3,1.3-0.4,1.9-0.5
		c2.7-1,5.1-2.5,8.3-2.7C336.4,283.3,336.7,278.9,338.6,276.2z"/>
	<path class="st4" d="M303.5,293.1c-0.6,0-0.9-0.3-1-0.9c-1.9-3.3-4.9-5.3-8.5-6.4c-1.1-1-2-2.1-2.6-3.5c-0.7-2.7-0.5-5.4,0.7-7.9
		c1.2-0.8,1.7,0.2,2.2,1c3.5,5.4,3.7,5.5,9.5,2.3c0.8-0.5,1.6-1,2.6-1c5.5,2.3,10.2,5.8,15,9c0.2,0.4,0.3,0.9,0.1,1.4l-0.2,0.3
		c-2,2-4.7,2.2-7.2,2.6c-2,0.3,0.5,0.7-0.1,0.9c0.4,1.2,0.3,2.4-0.2,3.5c-1.3,1.7-2.8,1.9-4.5,0.6c-1.2-1.1-1.1-4.5-4.2-2.3
		C304.8,292.9,304.2,293.1,303.5,293.1z"/>
	<path class="st5" d="M312.2,308.2c3.9,5.3,3.3,9.4-1.9,13.9c-1,0.9-2.1,0.9-2.9-0.2c-0.4-0.6,0.5-3.2-1.2-0.6
		c-1.6,2.4-3.6,2.5-5.9,1c-3.9-3.1-6.1-6.6-2.1-11.2c1.5-1.2,2.5-3.1,4.8-3.1c1.9,0,3.9,0.3,5.7-0.8
		C310,306.4,311.5,306.1,312.2,308.2z"/>
	<path class="st6" d="M306.6,277.1c-0.7,0.3-1.4,0.7-2.1,1c-0.9-0.1-1.6-0.5-2.2-1.1c-2.6-3.2-5.7-4.9-9.9-4
		c-4.6,3.7-8.9,7.6-12.1,12.6c-0.6,1.1-1.4,2-2.8,2c-4.5-2.9-4.6-4.1-0.9-7.6c1.4-1.4,3-2.5,4.8-3.4c2.5-1.3,3.2-3.6,3.4-6.2
		c0.1-1,0.3-1.8,0.8-2.7c0.3-0.4,0.6-0.7,1-0.9c1.7,0.1,3.5,0.9,5.1-0.4c4-1.4,8.2-0.2,12.3-1c3.5,1.2,1.2,4.6,2.4,6.6
		c1.1,1.5,3.4-0.1,4.3,1.8C310.1,276,306.4,274.1,306.6,277.1z"/>
	<path class="st7" d="M297.5,251.3c-1.5,2.3-3.1,4.6,0,6.9c0.8,1,0.5,1.8-0.5,2.4c-3.8,0.2-4.9-3.5-8.1-5.4c0.7,3.6,0.9,6.9-3.7,7.3
		c-2.2-0.6-4.7-0.6-5.9-3.1c2.3-2.2,1.1-3.7-1.1-4.9c-1.2-1.6-2.2-3.2-2.1-5.2c0.3-0.7,0.7-1.2,1.4-1.6c1.8-0.7,3.3-0.1,4.4,1.3
		c1.3,1.6,0.9-0.2,1.3-0.6c1.8-1.4,3.2,1.3,5,0.5c1.9,0.2,2.6,2.9,4.8,2.4c0.8-0.5,1.4-1.5,2.6-1.5
		C296.4,250,297.1,250.4,297.5,251.3z"/>
	<path class="st8" d="M338.6,276.2c-0.2,6.1-2.8,9.2-8.7,8.7c-2.9-0.2-3.4,4.7-6.5,2.1c-1.5-4.4,0-6.9,5.2-8.9
		C331.7,276,334.2,271.3,338.6,276.2z"/>
	<path class="st9" d="M328.7,278.1c-1.7,3-6.1,4.4-5.2,8.9c-0.6,0-1.2-0.1-1.8-0.1c-0.1-0.3-0.1-0.6-0.1-0.8
		c-0.2-3.7-0.8-7.2-3.2-10.2c-1.6-2.1,0.2-4.5-0.7-6.7c-0.1-0.9,0.3-1.5,1-2c2.9,0.3,6.1-1.2,8.8,1
		C329.1,271.3,328.7,274.8,328.7,278.1z"/>
	<path class="st10" d="M317.6,269.2c1-0.4,2.4-0.5,1.7,1c-1.4,2.9-0.3,5.1,1.4,7.2c2.3,2.8,2.5,5.6,0.9,8.7
		c-5.3-2.4-10.2-5.5-14.9-9c-0.6-0.9-1.2-1.8-2.2-3.1c2.3,0,4.3,0,6.3,0c1.7,1.5,3.3,3.1,5.4,5C316.6,275.6,315.3,272,317.6,269.2z"
		/>
	<path class="st11" d="M261.5,296.3c5.7-1.3,11.7-1.4,16.8-4.9c1.8,3.5-2.8,3.7-3.1,6.1c-0.2,0.8-0.5,1.6-0.9,2.4
		c-0.4,0.8-0.9,1.5-1.3,2.3c-1.9,2.8-0.8,6.2-1.7,9.2c-0.2,0.4-0.5,0.8-0.9,1c-0.8-3.6-4.2-4.6-6.7-6.3c-1.6-2.1-3.1-4.3-0.7-6.8
		c1.5-1,3.2,0,5.2-0.6c-2.2-0.4-4.1-0.2-6,0C261.1,298,260.7,297.3,261.5,296.3z"/>
	<path class="st12" d="M296.7,291.9c2,6.8,3.6,13.6-4.1,18.2c-1.9-0.4-2.8-1.6-2.4-3.6c1.5-3.6-1.8-4.9-3.4-7.1
		c-0.9-0.6-0.9-1.5-0.5-2.4c1.9-1.2,3.6-2.7,5.8-3.2C294.2,294.4,295.1,292.4,296.7,291.9z"/>
	<path class="st13" d="M292.5,294.2c-1.8,1.1-2.9,3.6-5.6,3.2c-0.7,0.3-1.3,0.7-2.1,0.7c-2.3-0.2-3.9-1.6-5.2-3.4
		c-0.8-1.1,0.4-2.5-0.5-3.5c-0.6-1-1.1-2-1.7-3c-0.3-0.2-0.4-0.4-0.4-0.7c0.1-0.3,0.1-0.4,0.2-0.4c1.1-0.3,1.7-1,2.2-2
		c0.7-0.9,1.1-2.1,1.9-2.8c1.2-1,2.5-2.5,4.2-1.2c2,1.4,0.6,2.8-0.1,4.2c-0.1,1.4-4.3,2.1-0.6,4c2.9,0.8,6.4-0.9,8.9,2
		C294.3,292.7,293.9,293.7,292.5,294.2z"/>
	<path class="st14" d="M265.3,287.2c-2.6,0.1-4.8-2.1-7.4-0.5c-0.8-2.9,1.3-4.4,1.9-6.4c1.4-1,2.4-2.7,4.2-3.1
		c2.1-0.4,4.1,0,6.1,0.5c1.9,0.3,4.1-0.1,5.7,1.6c0.4,1,0.3,2.2-0.8,2.3c-4.8,0.3-1.7,2.4-1.1,4c-2.2,3.1-5,1.2-7.3,0.5
		C264.6,285.5,266,287.3,265.3,287.2z"/>
	<path class="st15" d="M277.5,248.2c-0.3,0.3-0.6,0.6-0.9,1c-2.6-1.6-2.2-4.5-3.1-7.1c-0.4,1.5,0.6,3.4-1.2,4.4
		c-1.7-4.3-1-8.2,1.3-12.1c3.4,0.8,1,3.5,1.6,5.2c-0.2-1.7,0.3-2.5,2.1-2.3c0,1.8,0.9,3,2,4.3c1.8,2.1,3.4,2.9,5.3,0.1
		c0.7-1,1.8-1.8,2.7-2.7c2.9,0.5,1.3,2.8,1.6,4.3c-0.6,1.7-2.9,3-1.5,5.3c0,0.2,0,0.4,0,0.7c-2.1,2.8-2.5-1.5-4-1
		C281.5,249.2,279.5,245.1,277.5,248.2z"/>
	<path class="st16" d="M292.5,232.2c3.8-5.1,5.2-5.5,13-2.8c-9.9,2-7.3,9.5-7.8,15.6c0,1.5,0,2.9-1.9,3.4c-1.2-0.5-1.4-1.8-2.1-2.7
		c-0.7-1.2-1.5-2.4-1.7-3.8c0.1-2,1-3.7,1.5-5.6C294,234.6,294.7,233.1,292.5,232.2z"/>
	<path class="st17" d="M303.6,309.1c-2.2-0.4-3.5,1.4-5.3,2c1.5-2.5,2.5-5.4,5.3-7c2.6-0.4,4.2-1.9,4.8-4.4c3.4-3,9.4-2.8,12.3,0.6
		c-0.7,0.6-1.3,1.3-2,1.9c-2,0.6-4.3,0.6-4.9,3.4c0.1,0.3,0,0.5-0.2,0.7C309.7,305.6,306.8,308,303.6,309.1z"/>
	<path class="st18" d="M272.3,246.4c0.1-1.6,0.2-3.3,0.3-5.2c4,1.5,2.4,5.5,4,8c0.6,1.7,1.3,3.4,1.9,5.1c2,1.8,1.3,3.3-0.5,4.6
		c-1.8,1.1-3.4,2.7-5.7,2.8c-1.7-0.4-3.5-0.8-3.3-3.1c0.2-0.7,0.6-1.3,1.2-1.7c3.8-1,4.3-3.4,2.5-6.6
		C272.6,248.9,272.5,247.7,272.3,246.4z"/>
	<path class="st19" d="M320.5,300.2c-4.1-0.4-8.4-3.7-12,0.9c-0.7,0.6-1.4,0.6-2.1,0.1c0.6-3.2-1.2-5.6-2.9-8c0.3-0.3,0.7-0.7,1-1
		c2.3-0.8,4.2-0.7,5.1,2c1.3,0.9,2.6,1,3.9,0c1.5,2.1,4.8-1,6,2c0.6,1.3,1.7,1.8,3.1,2C321.9,298.9,321.2,299.5,320.5,300.2z"/>
	<path class="st20" d="M273.1,285.3c-1.9-0.3-3.4-1.9-2.9-3.3c0.8-2.6,3.9-0.1,5.4-1.7c0.4-1.2,0.3-2.5,1-3.6
		c0.4-0.8,0.8-1.6,1.3-2.2c2.3-1.7,4.3-4,7.4-4.3c1.2,3.6-0.1,6.4-3.5,7.8c-1.8,0.7-2.9,2.1-4.3,3c-3.6,2.2-2.5,4.1-0.2,6.2
		c0,0.4,0.1,0.7,0.1,1.1c-0.6-0.1-1.3-0.2-1.9-0.2C274.3,287.4,274.1,286,273.1,285.3z"/>
	<path class="st21" d="M269.6,258.3c-0.2,2.2,2.5,1.4,3,2.9c-0.9,3.7-3.3,6.7-4.4,10.2c-1.4,2.3-3.2,4.4-4.7,6.7
		c-1.3,0.7-2.6,1.4-3.8,2.1c3-6.6,4.6-13.9,8.7-20C268,259.1,267.7,258,269.6,258.3z"/>
	<path class="st22" d="M296.5,260.2c0.8-0.5,1-1.2,1-2.1c0.4,0.2,0.7,0.4,1.1,0.6c0.8,1.1,2.5,1.1,2.9,2.8c1.3-1.5,2.3-3,3.5-4.1
		c1.5-0.5,2.9-0.5,3.8,1c0.2,2.5-0.3,5.1,0.5,7.6c-0.5,2.2-3.5,3.2-2.9,6c-2-1.5,0.2-5.1-3-5.9c-2.1-0.6-3.9-1.7-5.4-3.3
		C297.3,262.1,296.1,261.6,296.5,260.2z"/>
	<path class="st23" d="M295.7,248.3c1.1-0.9,0.4-2.7,1.9-3.3c4.2,0,8.4,0,12.6,0c0.1,0.3,0.1,0.6,0.2,0.9c-4.3,1.8-8.6,3.6-12.9,5.4
		c-0.9-0.1-1.7-0.2-2.2-1.2C294.9,249.4,295,248.8,295.7,248.3z"/>
	<path class="st24" d="M292.5,232.2c1.4,1.5,2-1.7,3.6-0.3c-1.2,3.2-1.3,7-3.6,10.1c-0.5,1.2-1.6,1.4-2.7,1.7
		c-0.5,0-0.9-0.1-1.2-0.4c-2-1,1.1-3.3-1.1-4.2C289.4,236.9,291.3,234.8,292.5,232.2z"/>
	<path class="st25" d="M300.4,322.3c2-0.3,4.6,0.9,5.2-2.7c0.2-1.2,2.3-1.6,2.6-1.6c3.7,1.1-3.4,4.2,2.2,4.1
		C304.8,327.5,303.1,327.6,300.4,322.3z"/>
	<path class="st26" d="M281.5,315.2c-0.9,3.4-3.7,3.2-6.2,2.9c-3.4-0.4-4.6-2.8-4.9-5.8c0.2-0.1,0.3-0.1,0.5-0.2
		c0.5-0.1,0.9-0.1,1.3,0.2c2.6,2.6,4.9-0.5,7.3-0.5c0.5,0,0.9,0.1,1.3,0.3C281.5,312.9,282.2,313.9,281.5,315.2z"/>
	<path class="st27" d="M327.5,268.2c-1.3,0.6-2.7-1.2-4.3,0.8c-1.7,2.2-2.3-2.7-4.5-1.8c1.2-3,3.6-3.6,6.4-3.1
		C327.1,264.5,327.8,266.1,327.5,268.2z"/>
	<path class="st28" d="M284.1,297.4c0.9,0,1.9,0,2.8,0c-0.2,0.8-0.3,1.5,0.4,2.1c1.9,1.9,3.2,4,3.3,6.8c0,1.6,1.3,2.6,2,3.8
		c-0.6,0.8-0.8,2-2.1,2.1c-1.5-1.2-2-3.1-3-4.7C286,304.2,283.8,301.2,284.1,297.4z"/>
	<path class="st29" d="M273.1,285.3c1.5,0.2,2.3,1.2,2.4,2.7c-3.4,0.1-6.9,0-10.3-0.8c0.4-0.6-2.1-1.4,0.3-1.9
		C268.1,284.8,270.6,286.9,273.1,285.3z"/>
	<path class="st30" d="M307.5,254.1c1.3-1.8,2.6-3.6,4.2-6c1.1,2.8,0.7,4.9-0.3,7c-0.8,1.1-1.4,3-3.2,2.3
		C306.5,256.9,307.1,255.4,307.5,254.1z"/>
	<path class="st31" d="M288.5,307.3c1.2,1.4,2.1,3,2,4.9c-1,0-1.9,0.2-2.5,1.2c-1.6,0.5-3.2,0.6-4.5-0.7
		C282.3,308.2,285.7,308,288.5,307.3z"/>
	<path class="st32" d="M304.5,258.2c2.4,2.1-3.2,3.2-0.6,5.5c-2.7-0.7-4.4-2.5-5.4-4.9c1.3-0.5,2.7-1,4-1.4
		C303.2,257.7,304.1,257.4,304.5,258.2z"/>
	<path class="st33" d="M327.2,299.1c-1.3,3.1-2.6,6.2-4.3,10.3c-1-4.9,1.7-8.2,1.5-11.9c0,0,0-0.5,0-0.5
		C326.2,296.7,326.9,297.7,327.2,299.1z"/>
	<path class="st34" d="M331.8,289.2c-1.5-0.3-0.8,3.5-3.1,1.7c-0.7-0.6-2.2-1-1.6-2.1c0.7-1.2,1.6-2.5,3.3-2.6
		c1.2,0,2.3-0.1,3.1,1.1C333.3,288.2,332.7,288.9,331.8,289.2z"/>
	<path class="st35" d="M303.6,309.1c2.8-2.5,5.4-5.6,9.8-3c-0.4,0.7-0.8,1.4-1.2,2c-1.4-1-2.6-0.9-3.7,0.5
		C307,310.5,305.2,308.8,303.6,309.1z"/>
	<path class="st36" d="M263.5,299.2c-1.9,2.3,0.2,4.5,0.2,6.7c-4.6-3-5.1-5.3-2.1-9.7c0,0.8,0.2,1.5,1,1.9
		C263.1,298.3,263.4,298.7,263.5,299.2z"/>
	<path class="st37" d="M304.5,258.2c-0.7-0.3-1.3-0.6-2-0.8c1.6-1.1,3.3-2.2,4.9-3.2c0.3,3.8,2,2.8,3.9,1.1
		c-0.3,1.6-0.6,3.3-0.9,4.9c-1.1,0.5-1.6-0.1-1.8-1.1C307.5,257.7,305.9,258.3,304.5,258.2z"/>
	<path class="st38" d="M327.2,299.1c-0.9-0.7-1.8-1.4-2.8-2.1c1.4-1.6-0.8-3.4,0.6-5.3c1.6,1.2,2.7,3.1,4.7,3.6
		C328.9,296.6,328.1,297.8,327.2,299.1z"/>
	<path class="st39" d="M269.6,258.3c-1,0.3-1.1,1.1-1.2,2c-2.8-1.8-2.1-3.6,0.1-5.4c1.3-1,2.6-1.9,3.9-2.8c1.7,2.5-0.3,3.8-1.8,5.1
		C270.3,257.6,270,257.9,269.6,258.3z"/>
	<path class="st40" d="M277.4,237.3c-1.5,0.4-1.6,1.9-2.4,3c-1.2-1.9,0.5-4.4-1.3-6c0.4-1.5,1.4-2.6,2.8-1.9
		C278.4,233.5,277.2,235.6,277.4,237.3z"/>
	<path class="st41" d="M292.5,294.2c0.3-1,0.6-2,0.9-2.9c-0.9-1.3-0.8-2.5,0.6-3.4c1.3-0.4,2,0.3,2.5,1.4c0.1,0.9-0.6,1.9,0.3,2.7
		C295.1,295.3,294,295.8,292.5,294.2z"/>
	<path class="st42" d="M270.6,257.3c0.3-1.8,2.1-3.1,1.8-5.1c0.1-0.6,0.2-1.3,0.3-1.9C277.1,255,276.9,255.7,270.6,257.3z"/>
	<path class="st43" d="M308.6,259c0.6,0.4,1.2,0.7,1.8,1.1c-0.1,2.1,0.9,4.3-1.1,6.1C306.1,264.1,307.3,261.6,308.6,259z"/>
	<path class="st44" d="M279.1,291.1c3.9,0.5,1.1,2,0.5,3.2c0,0.2-0.1,0.5-0.1,0.7c-1.1,2-2.4,3.5-5,2.3c-1-3.4,4.4-2.7,3.8-5.9
		C278.5,291.2,278.8,291.1,279.1,291.1z"/>
	<path class="st45" d="M296.4,289.2c-0.7-0.4-1.4-0.8-2.1-1.2c-0.7-0.9-0.7-1.9,0.1-2.7c3.6,1.3,7,2.8,8,7c-1.6-1.5-3-3.2-4.7-4.4
		C296,286.6,296.9,288.7,296.4,289.2z"/>
	<path class="st46" d="M283.5,312.2c1.5,0.4,3,0.8,4.5,1.2c-1.7,2-4,2.2-6.4,1.8c-0.4-0.9-0.8-1.9-1.1-2.8
		C281.4,311.3,282.4,311.4,283.5,312.2z"/>
	<path class="st47" d="M306.4,301.2c0.7,0,1.4,0,2.1-0.1c-0.2,2.5-3.1,4.2-5,3C304.2,302.9,305,301.7,306.4,301.2z"/>
	<path class="st48" d="M313.6,305.5c-1-4.9,2.3-3.6,4.9-3.4C317.5,304.2,315,304,313.6,305.5z"/>
	<path class="st49" d="M319.5,296.2c-0.8-0.2-2-0.8-2.2-0.6c-3.6,5.2-2.5-1.2-3.8-1.5c0-1.3,0-2.7,0-4c2-0.4,4-1.6,5.9,0.1
		c0,1,3.9,1.4,0.4,2.9C317.8,294,321.2,295.4,319.5,296.2z"/>
	<path class="st50" d="M319.5,290.3c-2,0-4-0.1-5.9-0.1c-0.2,0-0.4,0-0.5-0.1c-0.2-0.2-0.3-0.4-0.5-0.6c3-0.7,6-1.5,9-2.2
		c0.4,0.8,2.1,1,1.5,2.2C322.3,290.9,320.6,290,319.5,290.3z"/>
	<path class="st51" d="M284.5,285.2c-0.6-1.4,2.3-2.1,0.9-3.3c-1.5-1.2-2.7,0.2-3.7,1.3c-0.7,0.7-1.4,1.3-2.1,2
		c0.2-1.7,0.9-3.1,2.4-4.1c3.4-2.1,6.1-4.8,7.6-8.6c0.8-1.8,1.9-1.5,3-0.3c0.6,0.7,0.6,1.3,0,2c0,2.7-0.1,5.4-0.1,8.1
		c-2,1.8-3.5,4.6-6.9,3.9C285.2,285.9,284.8,285.6,284.5,285.2z"/>
	<path class="st52" d="M292.5,274.2c0-0.7,0-1.3,0-2c6.1-2.2,8.9,2.2,12,6C297.9,283,295.6,282.7,292.5,274.2z"/>
	<path class="st53" d="M285.7,285.4c3,0.5,3.9-3.3,6.8-3.1c0.7,1,1.4,2,2,3c0,0.9-0.1,1.8-0.1,2.7c-1.2,0.8-0.8,2.1-1,3.3
		c-2.8-2-6.2,1.3-8.9-1C283.7,288.3,284.4,286.8,285.7,285.4z"/>
	<path class="st45" d="M309.6,294.2c-1.2-1.8-3.6-0.8-5.1-2c0.8-1.5,2-2.2,3.7-1.8C310.1,291,309.3,292.8,309.6,294.2z"/>
	<path class="st54" d="M296.5,260.2c0.7,0.6,1.4,1.2,2.1,1.9c-1.7,2.6-3.8,4.7-7.1,5.1c-1.5,3.9-3.2,0.9-4.8,0.1
		c-1.7-1.3-1.9-3.1-1.3-5c4.9-1.9,1.2-6.2,2.6-9.6C290.9,255.3,293.7,257.8,296.5,260.2z"/>
	<path class="st55" d="M277.5,261.2c0.1,3.1-1,7.5,0.6,9.1c1.7,1.6,4.9-3.2,8.3-2.2c-0.3,0.7-0.7,1.4-1,2.1
		c-2.3,1.7-4.6,3.4-6.9,5.1c-0.6,0.5-1.2,0.7-2,0.3c-1-1.1,0.1-2.7-0.8-3.9c-0.5-2.4-1-4.8-1-7.3
		C275.1,262.8,275.3,261.1,277.5,261.2z"/>
	<path class="st56" d="M291.5,267.2c3.2-0.5,3.4-5.2,7.1-5.1c1.6,1.4,3.2,2.7,4.8,4.1C299.6,267.9,295.5,266.8,291.5,267.2z"/>
	<path class="st57" d="M289.4,243.1c0.8-1,2-0.8,3-1.1c0.7,1.1,1.4,2.2,2.2,3.3c0.7,2.4-0.3,4.6-1,6.9c-0.1,1.2-0.5,1.9-1.8,0.9
		c-1.5-1.2-2.9-2.5-4.3-3.8c0,0,0.1-0.3,0.1-0.3C287.5,246.8,289.4,245.2,289.4,243.1z"/>
	<path class="st58" d="M277.5,248.2c1.1-3.8,1.1-3.8,6,0c-0.2,1.5,1.8,2.9,0.1,4.8C281.4,251.5,281.2,247.4,277.5,248.2z"/>
	<path class="st59" d="M279.6,259.1c-0.4,0-0.8-0.1-1.2-0.1c-0.5-0.1-0.8-0.4-1-0.9c1.5-1,1.5-2.4,1-3.9c1.7,0.3,3.7,0.4,4,2.7
		C282.7,259.1,281.1,259.1,279.6,259.1z"/>
	<path class="st60" d="M293.5,252.1c-0.1-2.3,0.2-4.7,1-6.9c1.4,0.7,0.9,2,1.2,3.1c-0.1,0.6-0.3,1.2-0.4,1.8
		C294.7,250.8,294.1,251.5,293.5,252.1z"/>
	<path class="st61" d="M283.5,312.2c-1,0.1-2,0.1-3.1,0.2c0,0-0.4,0-0.4,0l-0.4,0c-1.3,0.2-1.7-0.8-2-1.7c-0.2-1.6-1.1-2.6-2.6-3.2
		c-3-1.2-3.8-3.3-2.4-6.3c0.4-0.6,0.8-1.3,1.2-1.9c2.2-1.3,5.2-1.6,6-4.7c0,0,0-0.3,0-0.3c1.5,1,3,2,4.4,3c1.5,3.3,2.9,6.6,4.4,9.9
		C287.7,309.8,283.3,308.7,283.5,312.2z"/>
	<path class="st31" d="M272.5,301.2c-0.3,3,0.7,5.6,4,5.7c3.1,0.1,1.7,2.1,2,3.4c-1.9,2.3-4.2,3.1-7,2.1c-0.2-0.1-0.4-0.1-0.6-0.2
		C270.8,308.3,269.1,304.4,272.5,301.2z"/>
	<path class="st62" d="M263.5,299.2c-0.3-0.3-0.6-0.7-0.9-1c2.5-2,5.7-0.3,8.4-1.4C269.5,301,266.6,300.6,263.5,299.2z"/>
	<path class="st31" d="M279.7,294.6c0.4,4.7-2.6,4.9-6,4.7c0.3-0.7,0.6-1.3,0.8-2C276.2,296.4,278,295.5,279.7,294.6z"/>
	<path class="st63" d="M290.5,306.2c-1.1-2.3-2.2-4.5-3.3-6.8c3.3,0.9,4.1,4,5.1,6.6C292.7,306.9,291.2,306.3,290.5,306.2z"/>
	<path class="st64" d="M285.7,285.4c0,1.7-0.2,3.3-1.2,4.8c-1.6,0-2.7-0.8-3.4-2.4c1.1-0.9,2.3-1.7,3.4-2.6
		C284.9,285.3,285.3,285.3,285.7,285.4z"/>
	<path class="st65" d="M276.6,275.1c0.6,0,1.2,0.1,1.8,0.1c-0.3,0.6-0.7,1.3-1,1.9c-2.4,1.4-5.6-0.2-7.8,2c-1.9-1-4-0.9-6-1
		c-0.9-3.5,2.6-4.6,3.7-7c3.3-1.7,4.3-5.9,8.1-7c1,2.6,1.1,5.3,1.1,8c-1,1.3-1.8,2.8-3.8,2.4C274,274.9,275.4,273.9,276.6,275.1z"/>
	<path class="st66" d="M269.6,279.1c1.7-4.1,4.9-2.8,7.8-2c-0.6,1-1.2,2.1-1.8,3.1C273.9,278.3,271.6,279.6,269.6,279.1z"/>
	<path class="st67" d="M289.4,243.1c1.7,2.7,0.2,4.4-1.8,5.9c-5-2.7-1.3-4.1,0.9-5.8C288.8,243.1,289.1,243.1,289.4,243.1z"/>
	<path class="st68" d="M275.4,264.1c-2.7,2.4-3.6,6.8-8.1,7c1.3-3.6,2.5-7.2,5.4-10c1.6-1,3.2-2,4.9-3.1c0.3,0.3,0.6,0.6,1,0.9
		c-0.3,0.7-0.6,1.5-1,2.2C276.8,262.2,276.1,263.2,275.4,264.1z"/>
	<path class="st69" d="M271.4,312.3c2.3-0.7,4.7-1.4,7-2.1c0.4,0.7,0.7,1.4,1.1,2.1C276.8,312.3,274.1,318.8,271.4,312.3z"/>
	<path class="st70" d="M276.6,275.1c-1.6,0-3.2,0-5.6,0c2.2-1.2,3.9-2,5.5-2.9C277.7,273.1,276.2,274.1,276.6,275.1z"/>
</g>
</svg>
