<?xml version="1.0" encoding="utf-8"?>
<!-- Generator: Adobe Illustrator 19.0.0, SVG Export Plug-In . SVG Version: 6.00 Build 0)  -->
<svg version="1.1" id="Laag_1" xmlns="http://www.w3.org/2000/svg" xmlns:xlink="http://www.w3.org/1999/xlink" x="0px" y="0px"
	 viewBox="0 0 595.3 595.3" style="enable-background:new 0 0 595.3 595.3;" xml:space="preserve">
<style type="text/css">
	.st0{fill:url(#SVGID_1_);}
	.st1{opacity:7.000000e-02;}
	.st2{fill:url(#SVGID_2_);}
	.st3{fill:#6A8334;}
	.st4{fill:#607535;}
	.st5{fill:#567632;}
	.st6{fill:#5B792B;}
	.st7{fill:#BED172;}
	.st8{fill:#4E6032;}
	.st9{fill:#32501A;}
	.st10{fill:#1C370A;}
	.st11{fill:#A1B074;}
	.st12{fill:#56762D;}
	.st13{fill:#A5C955;}
	.st14{fill:#B4CB68;}
	.st15{fill:#C5D678;}
	.st16{fill:#AFBE7C;}
	.st17{fill:#729339;}
	.st18{fill:#ADCA4B;}
	.st19{fill:#92AD56;}
	.st20{fill:#3C5D1B;}
	.st21{fill:#C8DD93;}
	.st22{fill:#A2B765;}
	.st23{fill:#71873A;}
	.st24{fill:#D8E3A8;}
	.st25{fill:#84A15A;}
	.st26{fill:#84A161;}
	.st27{fill:#49662C;}
	.st28{fill:#ABCB7B;}
	.st29{fill:#405E2C;}
	.st30{fill:#627744;}
	.st31{fill:#425D24;}
	.st32{fill:#869C52;}
	.st33{fill:#949E7F;}
	.st34{fill:#809653;}
	.st35{fill:#86A853;}
	.st36{fill:#C4D092;}
	.st37{fill:#76913F;}
	.st38{fill:#8CA054;}
	.st39{fill:#E3E6C1;}
	.st40{fill:#DFE8B1;}
	.st41{fill:#3A5812;}
	.st42{fill:#D4E267;}
	.st43{fill:#C1CD8F;}
	.st44{fill:#DCEEA6;}
	.st45{fill:#7F9647;}
	.st46{fill:#4B6829;}
	.st47{fill:#52751E;}
	.st48{fill:#4C6C15;}
	.st49{fill:#537524;}
	.st50{fill:#8FA956;}
	.st51{fill:#8FAF51;}
	.st52{fill:#40631E;}
	.st53{fill:#AACF6A;}
	.st54{fill:#839E3F;}
	.st55{fill:#B1C47C;}
	.st56{fill:#6F8A31;}
	.st57{fill:#98A95D;}
	.st58{fill:#A5B356;}
	.st59{fill:#95AD46;}
	.st60{fill:#DDECA3;}
	.st61{fill:#1B380A;}
	.st62{fill:#78933C;}
	.st63{fill:#304B0D;}
	.st64{fill:#9FBD50;}
	.st65{fill:#8EB043;}
	.st66{fill:#648536;}
	.st67{fill:#7F943F;}
	.st68{fill:#699534;}
	.st69{fill:#617E40;}
	.st70{fill:#A8C459;}
</style>
<linearGradient id="SVGID_1_" gradientUnits="userSpaceOnUse" x1="114.0142" y1="290.4252" x2="317.7552" y2="290.4252">
	<stop  offset="0" style="stop-color:#FF0068"/>
	<stop  offset="1" style="stop-color:#5000FF"/>
</linearGradient>
<polygon class="st0" points="114,106.6 317.8,404.3 154.5,474.2 "/>
<ellipse class="st1" cx="209.1" cy="376.9" rx="34.7" ry="12.7"/>
<linearGradient id="SVGID_2_" gradientUnits="userSpaceOnUse" x1="145.3734" y1="504.1475" x2="194.0941" y2="332.2964">
	<stop  offset="0" style="stop-color:#00FF4E"/>
	<stop  offset="0.9967" style="stop-color:#FFFFFF;stop-opacity:0"/>
</linearGradient>
<polygon class="st2" points="114,106.6 317.8,404.3 154.5,474.2 "/>
<g>
	<path class="st3" d="M255.4,331.1c0.6,0.3,1.3,0.6,1.9,1c0,1.7,0,3.3,0,5c-1.7,2.6-4.9,3.1-7,5.1c-1.6,0.2-3.3-0.1-4.3,1.6
		c0.8,1.1,1.8-0.6,2.6,0.3c-0.9,2,2.3,5.3-2.1,6.1c-1.6,0.5-4.3-1.9-4.6,1.8c-0.2,0.1-0.4,0.2-0.6,0.3c-0.6,0.3-1.3,0.5-1.9,0.8
		c-1.7,1-2.6,0.1-3.4-1.3c-1.5-2.4-0.2-4.7,0.2-7c0.7-0.7,1.7-1.3,1.8-2.4c0.1-0.4,0.4-0.8,0.8-1c0.6-0.3,1.3-0.4,1.9-0.5
		c2.7-1,5.1-2.5,8.3-2.7C253.2,338.2,253.5,333.7,255.4,331.1z"/>
	<path class="st4" d="M220.3,348c-0.6,0-0.9-0.3-1-0.9c-1.9-3.3-4.9-5.3-8.5-6.4c-1.1-1-2-2.1-2.6-3.5c-0.7-2.7-0.5-5.4,0.7-7.9
		c1.2-0.8,1.7,0.2,2.2,1c3.5,5.4,3.7,5.5,9.5,2.3c0.8-0.5,1.6-1,2.6-1c5.5,2.3,10.2,5.8,15,9c0.2,0.4,0.3,0.9,0.1,1.4l-0.2,0.3
		c-2,2-4.7,2.2-7.2,2.6c-2,0.3,0.5,0.7-0.1,0.9c0.4,1.2,0.3,2.4-0.2,3.5c-1.3,1.7-2.8,1.9-4.5,0.6c-1.2-1.1-1.1-4.5-4.2-2.3
		C221.6,347.7,221,348,220.3,348z"/>
	<path class="st5" d="M229,363c3.9,5.3,3.3,9.4-1.9,13.9c-1,0.9-2.1,0.9-2.9-0.2c-0.4-0.6,0.5-3.2-1.2-0.6c-1.6,2.4-3.6,2.5-5.9,1
		c-3.9-3.1-6.1-6.6-2.1-11.2c1.5-1.2,2.5-3.1,4.8-3.1c1.9,0,3.9,0.3,5.7-0.8C226.8,361.2,228.3,360.9,229,363z"/>
	<path class="st6" d="M223.4,332c-0.7,0.3-1.4,0.7-2.1,1c-0.9-0.1-1.6-0.5-2.2-1.1c-2.6-3.2-5.7-4.9-9.9-4
		c-4.6,3.7-8.9,7.6-12.1,12.6c-0.6,1.1-1.4,2-2.8,2c-4.5-2.9-4.6-4.1-0.9-7.6c1.4-1.4,3-2.5,4.8-3.4c2.5-1.3,3.2-3.6,3.4-6.2
		c0.1-1,0.3-1.8,0.8-2.7c0.3-0.4,0.6-0.7,1-0.9c1.7,0.1,3.5,0.9,5.1-0.4c4-1.4,8.2-0.2,12.3-1c3.5,1.2,1.2,4.6,2.4,6.6
		c1.1,1.5,3.4-0.1,4.3,1.8C226.9,330.8,223.2,328.9,223.4,332z"/>
	<path class="st7" d="M214.3,306.1c-1.5,2.3-3.1,4.6,0,6.9c0.8,1,0.5,1.8-0.5,2.4c-3.8,0.2-4.9-3.5-8.1-5.4c0.7,3.6,0.9,6.9-3.7,7.3
		c-2.2-0.6-4.7-0.6-5.9-3.1c2.3-2.2,1.1-3.7-1.1-4.9c-1.2-1.6-2.2-3.2-2.1-5.2c0.3-0.7,0.7-1.2,1.4-1.6c1.8-0.7,3.3-0.1,4.4,1.3
		c1.3,1.6,0.9-0.2,1.3-0.6c1.8-1.4,3.2,1.3,5,0.5c1.9,0.2,2.6,2.9,4.8,2.4c0.8-0.5,1.4-1.5,2.6-1.5
		C213.2,304.9,213.9,305.3,214.3,306.1z"/>
	<path class="st8" d="M255.4,331.1c-0.2,6.1-2.8,9.2-8.7,8.7c-2.9-0.2-3.4,4.7-6.5,2.1c-1.5-4.4,0-6.9,5.2-8.9
		C248.5,330.9,251,326.1,255.4,331.1z"/>
	<path class="st9" d="M245.5,333c-1.7,3-6.1,4.4-5.2,8.9c-0.6,0-1.2-0.1-1.8-0.1c-0.1-0.3-0.1-0.6-0.1-0.8
		c-0.2-3.7-0.8-7.2-3.2-10.2c-1.6-2.1,0.2-4.5-0.7-6.7c-0.1-0.9,0.3-1.5,1-2c2.9,0.3,6.1-1.2,8.8,1
		C245.9,326.2,245.5,329.6,245.5,333z"/>
	<path class="st10" d="M234.4,324c1-0.4,2.4-0.5,1.7,1c-1.4,2.9-0.3,5.1,1.4,7.2c2.3,2.8,2.5,5.6,0.9,8.7c-5.3-2.4-10.2-5.5-14.9-9
		c-0.6-0.9-1.2-1.8-2.2-3.1c2.3,0,4.3,0,6.3,0c1.7,1.5,3.3,3.1,5.4,5C233.4,330.4,232.1,326.8,234.4,324z"/>
	<path class="st11" d="M178.3,351.1c5.7-1.3,11.7-1.4,16.8-4.9c1.8,3.5-2.8,3.7-3.1,6.1c-0.2,0.8-0.5,1.6-0.9,2.4
		c-0.4,0.8-0.9,1.5-1.3,2.3c-1.9,2.8-0.8,6.2-1.7,9.2c-0.2,0.4-0.5,0.8-0.9,1c-0.8-3.6-4.2-4.6-6.7-6.3c-1.6-2.1-3.1-4.3-0.7-6.8
		c1.5-1,3.2,0,5.2-0.6c-2.2-0.4-4.1-0.2-6,0C177.9,352.8,177.5,352.1,178.3,351.1z"/>
	<path class="st12" d="M213.5,346.7c2,6.8,3.6,13.6-4.1,18.2c-1.9-0.4-2.8-1.6-2.4-3.6c1.5-3.6-1.8-4.9-3.4-7.1
		c-0.9-0.6-0.9-1.5-0.5-2.4c1.9-1.2,3.6-2.7,5.8-3.2C211,349.3,211.9,347.2,213.5,346.7z"/>
	<path class="st13" d="M209.3,349c-1.8,1.1-2.9,3.6-5.6,3.2c-0.7,0.3-1.3,0.7-2.1,0.7c-2.3-0.2-3.9-1.6-5.2-3.4
		c-0.8-1.1,0.4-2.5-0.5-3.5c-0.6-1-1.1-2-1.7-3c-0.3-0.2-0.4-0.4-0.4-0.7c0.1-0.3,0.1-0.4,0.2-0.4c1.1-0.3,1.7-1,2.2-2
		c0.7-0.9,1.1-2.1,1.9-2.8c1.2-1,2.5-2.5,4.2-1.2c2,1.4,0.6,2.8-0.1,4.2c-0.1,1.4-4.3,2.1-0.6,4c2.9,0.8,6.4-0.9,8.9,2
		C211.1,347.5,210.7,348.5,209.3,349z"/>
	<path class="st14" d="M182.1,342c-2.6,0.1-4.8-2.1-7.4-0.5c-0.8-2.9,1.3-4.4,1.9-6.4c1.4-1,2.4-2.7,4.2-3.1c2.1-0.4,4.1,0,6.1,0.5
		c1.9,0.3,4.1-0.1,5.7,1.6c0.4,1,0.3,2.2-0.8,2.3c-4.8,0.3-1.7,2.4-1.1,4c-2.2,3.1-5,1.2-7.3,0.5C181.4,340.4,182.8,342.1,182.1,342
		z"/>
	<path class="st15" d="M194.3,303c-0.3,0.3-0.6,0.6-0.9,1c-2.6-1.6-2.2-4.5-3.1-7.1c-0.4,1.5,0.6,3.4-1.2,4.4
		c-1.7-4.3-1-8.2,1.3-12.1c3.4,0.8,1,3.5,1.6,5.2c-0.2-1.7,0.3-2.5,2.1-2.3c0,1.8,0.9,3,2,4.3c1.8,2.1,3.4,2.9,5.3,0.1
		c0.7-1,1.8-1.8,2.7-2.7c2.9,0.5,1.3,2.8,1.6,4.3c-0.6,1.7-2.9,3-1.5,5.3c0,0.2,0,0.4,0,0.7c-2.1,2.8-2.5-1.5-4-1
		C198.3,304,196.3,299.9,194.3,303z"/>
	<path class="st16" d="M209.3,287c3.8-5.1,5.2-5.5,13-2.8c-9.9,2-7.3,9.5-7.8,15.6c0,1.5,0,2.9-1.9,3.4c-1.2-0.5-1.4-1.8-2.1-2.7
		c-0.7-1.2-1.5-2.4-1.7-3.8c0.1-2,1-3.7,1.5-5.6C210.8,289.4,211.5,287.9,209.3,287z"/>
	<path class="st17" d="M220.4,364c-2.2-0.4-3.5,1.4-5.3,2c1.5-2.5,2.5-5.4,5.3-7c2.6-0.4,4.2-1.9,4.8-4.4c3.4-3,9.4-2.8,12.3,0.6
		c-0.7,0.6-1.3,1.3-2,1.9c-2,0.6-4.3,0.6-4.9,3.4c0.1,0.3,0,0.5-0.2,0.7C226.5,360.5,223.6,362.8,220.4,364z"/>
	<path class="st18" d="M189.1,301.2c0.1-1.6,0.2-3.3,0.3-5.2c4,1.5,2.4,5.5,4,8c0.6,1.7,1.3,3.4,1.9,5.1c2,1.8,1.3,3.3-0.5,4.6
		c-1.8,1.1-3.4,2.7-5.7,2.8c-1.7-0.4-3.5-0.8-3.3-3.1c0.2-0.7,0.6-1.3,1.2-1.7c3.8-1,4.3-3.4,2.5-6.6
		C189.4,303.8,189.3,302.5,189.1,301.2z"/>
	<path class="st19" d="M237.3,355c-4.1-0.4-8.4-3.7-12,0.9c-0.7,0.6-1.4,0.6-2.1,0.1c0.6-3.2-1.2-5.6-2.9-8c0.3-0.3,0.7-0.7,1-1
		c2.3-0.8,4.2-0.7,5.1,2c1.3,0.9,2.6,1,3.9,0c1.5,2.1,4.8-1,6,2c0.6,1.3,1.7,1.8,3.1,2C238.7,353.7,238,354.4,237.3,355z"/>
	<path class="st20" d="M189.9,340.1c-1.9-0.3-3.4-1.9-2.9-3.3c0.8-2.6,3.9-0.1,5.4-1.7c0.4-1.2,0.3-2.5,1-3.6
		c0.4-0.8,0.8-1.6,1.3-2.2c2.3-1.7,4.3-4,7.4-4.3c1.2,3.6-0.1,6.4-3.5,7.8c-1.8,0.7-2.9,2.1-4.3,3c-3.6,2.2-2.5,4.1-0.2,6.2
		c0,0.4,0.1,0.7,0.1,1.1c-0.6-0.1-1.3-0.2-1.9-0.2C191.1,342.2,190.9,340.8,189.9,340.1z"/>
	<path class="st21" d="M186.4,313.1c-0.2,2.2,2.5,1.4,3,2.9c-0.9,3.7-3.3,6.7-4.4,10.2c-1.4,2.3-3.2,4.4-4.7,6.7
		c-1.3,0.7-2.6,1.4-3.8,2.1c3-6.6,4.6-13.9,8.7-20C184.8,313.9,184.5,312.8,186.4,313.1z"/>
	<path class="st22" d="M213.3,315.1c0.8-0.5,1-1.2,1-2.1c0.4,0.2,0.7,0.4,1.1,0.6c0.8,1.1,2.5,1.1,2.9,2.8c1.3-1.5,2.3-3,3.5-4.1
		c1.5-0.5,2.9-0.5,3.8,1c0.2,2.5-0.3,5.1,0.5,7.6c-0.5,2.2-3.5,3.2-2.9,6c-2-1.5,0.2-5.1-3-5.9c-2.1-0.6-3.9-1.7-5.4-3.3
		C214.1,317,212.9,316.5,213.3,315.1z"/>
	<path class="st23" d="M212.5,303.2c1.1-0.9,0.4-2.7,1.9-3.3c4.2,0,8.4,0,12.6,0c0.1,0.3,0.1,0.6,0.2,0.9c-4.3,1.8-8.6,3.6-12.9,5.4
		c-0.9-0.1-1.7-0.2-2.2-1.2C211.7,304.3,211.8,303.7,212.5,303.2z"/>
	<path class="st24" d="M209.3,287c1.4,1.5,2-1.7,3.6-0.3c-1.2,3.2-1.3,7-3.6,10.1c-0.5,1.2-1.6,1.4-2.7,1.7c-0.5,0-0.9-0.1-1.2-0.4
		c-2-1,1.1-3.3-1.1-4.2C206.2,291.8,208.1,289.6,209.3,287z"/>
	<path class="st25" d="M217.2,377.1c2-0.3,4.6,0.9,5.2-2.7c0.2-1.2,2.3-1.6,2.6-1.6c3.7,1.1-3.4,4.2,2.2,4.1
		C221.6,382.4,219.9,382.4,217.2,377.1z"/>
	<path class="st26" d="M198.3,370c-0.9,3.4-3.7,3.2-6.2,2.9c-3.4-0.4-4.6-2.8-4.9-5.8c0.2-0.1,0.3-0.1,0.5-0.2
		c0.5-0.1,0.9-0.1,1.3,0.2c2.6,2.6,4.9-0.5,7.3-0.5c0.5,0,0.9,0.1,1.3,0.3C198.3,367.8,199,368.7,198.3,370z"/>
	<path class="st27" d="M244.3,323c-1.3,0.6-2.7-1.2-4.3,0.8c-1.7,2.2-2.3-2.7-4.5-1.8c1.2-3,3.6-3.6,6.4-3.1
		C243.9,319.4,244.6,321,244.3,323z"/>
	<path class="st28" d="M200.9,352.2c0.9,0,1.9,0,2.8,0c-0.2,0.8-0.3,1.5,0.4,2.1c1.9,1.9,3.2,4,3.3,6.8c0,1.6,1.3,2.6,2,3.8
		c-0.6,0.8-0.8,2-2.1,2.1c-1.5-1.2-2-3.1-3-4.7C202.8,359,200.6,356,200.9,352.2z"/>
	<path class="st29" d="M189.9,340.1c1.5,0.2,2.3,1.2,2.4,2.7c-3.4,0.1-6.9,0-10.3-0.8c0.4-0.6-2.1-1.4,0.3-1.9
		C184.9,339.7,187.4,341.8,189.9,340.1z"/>
	<path class="st30" d="M224.3,309c1.3-1.8,2.6-3.6,4.2-6c1.1,2.8,0.7,4.9-0.3,7c-0.8,1.1-1.4,3-3.2,2.3
		C223.3,311.7,223.9,310.2,224.3,309z"/>
	<path class="st31" d="M205.3,362.1c1.2,1.4,2.1,3,2,4.9c-1,0-1.9,0.2-2.5,1.2c-1.6,0.5-3.2,0.6-4.5-0.7
		C199.1,363,202.5,362.9,205.3,362.1z"/>
	<path class="st32" d="M221.3,313c2.4,2.1-3.2,3.2-0.6,5.5c-2.7-0.7-4.4-2.5-5.4-4.9c1.3-0.5,2.7-1,4-1.4
		C220,312.5,220.9,312.2,221.3,313z"/>
	<path class="st33" d="M244,353.9c-1.3,3.1-2.6,6.2-4.3,10.3c-1-4.9,1.7-8.2,1.5-11.9c0,0,0-0.5,0-0.5
		C243,351.5,243.7,352.5,244,353.9z"/>
	<path class="st34" d="M248.6,344.1c-1.5-0.3-0.8,3.5-3.1,1.7c-0.7-0.6-2.2-1-1.6-2.1c0.7-1.2,1.6-2.5,3.3-2.6
		c1.2,0,2.3-0.1,3.1,1.1C250.1,343.1,249.5,343.7,248.6,344.1z"/>
	<path class="st35" d="M220.4,364c2.8-2.5,5.4-5.6,9.8-3c-0.4,0.7-0.8,1.4-1.2,2c-1.4-1-2.6-0.9-3.7,0.5
		C223.8,365.4,222,363.6,220.4,364z"/>
	<path class="st36" d="M180.3,354.1c-1.9,2.3,0.2,4.5,0.2,6.7c-4.6-3-5.1-5.3-2.1-9.7c0,0.8,0.2,1.5,1,1.9
		C179.9,353.2,180.2,353.5,180.3,354.1z"/>
	<path class="st37" d="M221.3,313c-0.7-0.3-1.3-0.6-2-0.8c1.6-1.1,3.3-2.2,4.9-3.2c0.3,3.8,2,2.8,3.9,1.1c-0.3,1.6-0.6,3.3-0.9,4.9
		c-1.1,0.5-1.6-0.1-1.8-1.1C224.3,312.6,222.7,313.1,221.3,313z"/>
	<path class="st38" d="M244,353.9c-0.9-0.7-1.8-1.4-2.8-2.1c1.4-1.6-0.8-3.4,0.6-5.3c1.6,1.2,2.7,3.1,4.7,3.6
		C245.7,351.4,244.9,352.7,244,353.9z"/>
	<path class="st39" d="M186.4,313.1c-1,0.3-1.1,1.1-1.2,2c-2.8-1.8-2.1-3.6,0.1-5.4c1.3-1,2.6-1.9,3.9-2.8c1.7,2.5-0.3,3.8-1.8,5.1
		C187.1,312.4,186.8,312.8,186.4,313.1z"/>
	<path class="st40" d="M194.2,292.1c-1.5,0.4-1.6,1.9-2.4,3c-1.2-1.9,0.5-4.4-1.3-6c0.4-1.5,1.4-2.6,2.8-1.9
		C195.2,288.3,194,290.5,194.2,292.1z"/>
	<path class="st41" d="M209.3,349c0.3-1,0.6-2,0.9-2.9c-0.9-1.3-0.8-2.5,0.6-3.4c1.3-0.4,2,0.3,2.5,1.4c0.1,0.9-0.6,1.9,0.3,2.7
		C211.9,350.1,210.8,350.7,209.3,349z"/>
	<path class="st42" d="M187.4,312.1c0.3-1.8,2.1-3.1,1.8-5.1c0.1-0.6,0.2-1.3,0.3-1.9C193.9,309.8,193.7,310.6,187.4,312.1z"/>
	<path class="st43" d="M225.4,313.9c0.6,0.4,1.2,0.7,1.8,1.1c-0.1,2.1,0.9,4.3-1.1,6.1C222.9,318.9,224.1,316.4,225.4,313.9z"/>
	<path class="st44" d="M195.9,346c3.9,0.5,1.1,2,0.5,3.2c0,0.2-0.1,0.5-0.1,0.7c-1.1,2-2.4,3.5-5,2.3c-1-3.4,4.4-2.7,3.8-5.9
		C195.3,346,195.6,345.9,195.9,346z"/>
	<path class="st45" d="M213.2,344c-0.7-0.4-1.4-0.8-2.1-1.2c-0.7-0.9-0.7-1.9,0.1-2.7c3.6,1.3,7,2.8,8,7c-1.6-1.5-3-3.2-4.7-4.4
		C212.8,341.4,213.7,343.5,213.2,344z"/>
	<path class="st46" d="M200.3,367c1.5,0.4,3,0.8,4.5,1.2c-1.7,2-4,2.2-6.4,1.8c-0.4-0.9-0.8-1.9-1.1-2.8
		C198.2,366.1,199.2,366.2,200.3,367z"/>
	<path class="st47" d="M223.2,356c0.7,0,1.4,0,2.1-0.1c-0.2,2.5-3.1,4.2-5,3C221,357.7,221.8,356.6,223.2,356z"/>
	<path class="st48" d="M230.4,360.3c-1-4.9,2.3-3.6,4.9-3.4C234.3,359,231.8,358.8,230.4,360.3z"/>
	<path class="st49" d="M236.3,351.1c-0.8-0.2-2-0.8-2.2-0.6c-3.6,5.2-2.5-1.2-3.8-1.5c0-1.3,0-2.7,0-4c2-0.4,4-1.6,5.9,0.1
		c0,1,3.9,1.4,0.4,2.9C234.6,348.9,238,350.3,236.3,351.1z"/>
	<path class="st50" d="M236.3,345.1c-2,0-4-0.1-5.9-0.1c-0.2,0-0.4,0-0.5-0.1c-0.2-0.2-0.3-0.4-0.5-0.6c3-0.7,6-1.5,9-2.2
		c0.4,0.8,2.1,1,1.5,2.2C239.1,345.7,237.4,344.8,236.3,345.1z"/>
	<path class="st51" d="M201.3,340c-0.6-1.4,2.3-2.1,0.9-3.3c-1.5-1.2-2.7,0.2-3.7,1.3c-0.7,0.7-1.4,1.3-2.1,2
		c0.2-1.7,0.9-3.1,2.4-4.1c3.4-2.1,6.1-4.8,7.6-8.6c0.8-1.8,1.9-1.5,3-0.3c0.6,0.7,0.6,1.3,0,2c0,2.7-0.1,5.4-0.1,8.1
		c-2,1.8-3.5,4.6-6.9,3.9C202,340.7,201.6,340.4,201.3,340z"/>
	<path class="st52" d="M209.3,329c0-0.7,0-1.3,0-2c6.1-2.2,8.9,2.2,12,6C214.7,337.8,212.4,337.5,209.3,329z"/>
	<path class="st53" d="M202.5,340.2c3,0.5,3.9-3.3,6.8-3.1c0.7,1,1.4,2,2,3c0,0.9-0.1,1.8-0.1,2.7c-1.2,0.8-0.8,2.1-1,3.3
		c-2.8-2-6.2,1.3-8.9-1C200.5,343.1,201.2,341.6,202.5,340.2z"/>
	<path class="st45" d="M226.4,349c-1.2-1.8-3.6-0.8-5.1-2c0.8-1.5,2-2.2,3.7-1.8C226.9,345.8,226.1,347.6,226.4,349z"/>
	<path class="st54" d="M213.3,315.1c0.7,0.6,1.4,1.2,2.1,1.9c-1.7,2.6-3.8,4.7-7.1,5.1c-1.5,3.9-3.2,0.9-4.8,0.1
		c-1.7-1.3-1.9-3.1-1.3-5c4.9-1.9,1.2-6.2,2.6-9.6C207.7,310.1,210.5,312.6,213.3,315.1z"/>
	<path class="st55" d="M194.3,316c0.1,3.1-1,7.5,0.6,9.1c1.7,1.6,4.9-3.2,8.3-2.2c-0.3,0.7-0.7,1.4-1,2.1c-2.3,1.7-4.6,3.4-6.9,5.1
		c-0.6,0.5-1.2,0.7-2,0.3c-1-1.1,0.1-2.7-0.8-3.9c-0.5-2.4-1-4.8-1-7.3C191.9,317.6,192.1,315.9,194.3,316z"/>
	<path class="st56" d="M208.3,322c3.2-0.5,3.4-5.2,7.1-5.1c1.6,1.4,3.2,2.7,4.8,4.1C216.4,322.8,212.3,321.6,208.3,322z"/>
	<path class="st57" d="M206.2,297.9c0.8-1,2-0.8,3-1.1c0.7,1.1,1.4,2.2,2.2,3.3c0.7,2.4-0.3,4.6-1,6.9c-0.1,1.2-0.5,1.9-1.8,0.9
		c-1.5-1.2-2.9-2.5-4.3-3.8c0,0,0.1-0.3,0.1-0.3C204.3,301.6,206.2,300.1,206.2,297.9z"/>
	<path class="st58" d="M194.3,303c1.1-3.8,1.1-3.8,6,0c-0.2,1.5,1.8,2.9,0.1,4.8C198.2,306.4,198,302.2,194.3,303z"/>
	<path class="st59" d="M196.4,314c-0.4,0-0.8-0.1-1.2-0.1c-0.5-0.1-0.8-0.4-1-0.9c1.5-1,1.5-2.4,1-3.9c1.7,0.3,3.7,0.4,4,2.7
		C199.5,313.9,197.9,313.9,196.4,314z"/>
	<path class="st60" d="M210.3,306.9c-0.1-2.4,0.2-4.7,1-6.9c1.4,0.7,0.9,2,1.2,3.1c-0.1,0.6-0.3,1.2-0.4,1.8
		C211.5,305.6,210.9,306.3,210.3,306.9z"/>
	<path class="st61" d="M200.3,367c-1,0.1-2,0.1-3.1,0.2c0,0-0.4,0-0.4,0l-0.4,0c-1.3,0.2-1.7-0.8-2-1.7c-0.2-1.6-1.1-2.6-2.6-3.2
		c-3-1.2-3.8-3.3-2.4-6.3c0.4-0.6,0.8-1.3,1.2-1.9c2.2-1.3,5.2-1.6,6-4.7c0,0,0-0.3,0-0.3c1.5,1,3,2,4.4,3c1.5,3.3,2.9,6.6,4.4,9.9
		C204.5,364.7,200.1,363.5,200.3,367z"/>
	<path class="st31" d="M189.3,356c-0.3,3,0.7,5.6,4,5.7c3.1,0.1,1.7,2.1,2,3.4c-1.9,2.3-4.2,3.1-7,2.1c-0.2-0.1-0.4-0.1-0.6-0.2
		C187.6,363.2,185.9,359.2,189.3,356z"/>
	<path class="st62" d="M180.3,354.1c-0.3-0.3-0.6-0.7-0.9-1c2.5-2,5.7-0.3,8.4-1.4C186.3,355.8,183.4,355.4,180.3,354.1z"/>
	<path class="st31" d="M196.5,349.4c0.4,4.7-2.6,4.9-6,4.7c0.3-0.7,0.6-1.3,0.8-2C193,351.2,194.8,350.3,196.5,349.4z"/>
	<path class="st63" d="M207.3,361c-1.1-2.3-2.2-4.5-3.3-6.8c3.3,0.9,4.1,4,5.1,6.6C209.5,361.7,208,361.1,207.3,361z"/>
	<path class="st64" d="M202.5,340.2c0,1.7-0.2,3.3-1.2,4.8c-1.6,0-2.7-0.8-3.4-2.4c1.1-0.9,2.3-1.7,3.4-2.6
		C201.7,340.1,202.1,340.2,202.5,340.2z"/>
	<path class="st65" d="M193.4,329.9c0.6,0,1.2,0.1,1.8,0.1c-0.3,0.6-0.7,1.3-1,1.9c-2.4,1.4-5.6-0.2-7.8,2c-1.9-1-4-0.9-6-1
		c-0.9-3.5,2.6-4.6,3.7-7c3.3-1.7,4.3-5.9,8.1-7c1,2.6,1.1,5.3,1.1,8c-1,1.3-1.8,2.8-3.8,2.4C190.8,329.8,192.2,328.8,193.4,329.9z"
		/>
	<path class="st66" d="M186.4,334c1.7-4.1,4.9-2.8,7.8-2c-0.6,1-1.2,2.1-1.8,3.1C190.7,333.1,188.4,334.5,186.4,334z"/>
	<path class="st67" d="M206.2,297.9c1.7,2.7,0.2,4.4-1.8,5.9c-5-2.7-1.3-4.1,0.9-5.8C205.6,298,205.9,297.9,206.2,297.9z"/>
	<path class="st68" d="M192.2,319c-2.7,2.4-3.6,6.8-8.1,7c1.3-3.6,2.5-7.2,5.4-10c1.6-1,3.2-2,4.9-3.1c0.3,0.3,0.6,0.6,1,0.9
		c-0.3,0.7-0.6,1.5-1,2.2C193.6,317,192.9,318,192.2,319z"/>
	<path class="st69" d="M188.2,367.1c2.3-0.7,4.7-1.4,7-2.1c0.4,0.7,0.7,1.4,1.1,2.1C193.6,367.1,190.9,373.6,188.2,367.1z"/>
	<path class="st70" d="M193.4,329.9c-1.6,0-3.2,0-5.6,0c2.2-1.2,3.9-2,5.5-2.9C194.5,328,193,329,193.4,329.9z"/>
</g>
</svg>
