<?xml version="1.0" encoding="utf-8"?>
<!-- Generator: Adobe Illustrator 19.0.0, SVG Export Plug-In . SVG Version: 6.00 Build 0)  -->
<svg version="1.1" id="Laag_1" xmlns="http://www.w3.org/2000/svg" xmlns:xlink="http://www.w3.org/1999/xlink" x="0px" y="0px"
	 viewBox="0 0 595.3 595.3" style="enable-background:new 0 0 595.3 595.3;" xml:space="preserve">
<style type="text/css">
	.st0{fill:url(#SVGID_1_);}
	.st1{opacity:7.000000e-02;}
	.st2{fill:#6A8334;}
	.st3{fill:#607535;}
	.st4{fill:#567632;}
	.st5{fill:#5B792B;}
	.st6{fill:#BED172;}
	.st7{fill:#4E6032;}
	.st8{fill:#32501A;}
	.st9{fill:#1C370A;}
	.st10{fill:#A1B074;}
	.st11{fill:#56762D;}
	.st12{fill:#A5C955;}
	.st13{fill:#B4CB68;}
	.st14{fill:#C5D678;}
	.st15{fill:#AFBE7C;}
	.st16{fill:#729339;}
	.st17{fill:#ADCA4B;}
	.st18{fill:#92AD56;}
	.st19{fill:#3C5D1B;}
	.st20{fill:#C8DD93;}
	.st21{fill:#A2B765;}
	.st22{fill:#71873A;}
	.st23{fill:#D8E3A8;}
	.st24{fill:#84A15A;}
	.st25{fill:#84A161;}
	.st26{fill:#49662C;}
	.st27{fill:#ABCB7B;}
	.st28{fill:#405E2C;}
	.st29{fill:#627744;}
	.st30{fill:#425D24;}
	.st31{fill:#869C52;}
	.st32{fill:#949E7F;}
	.st33{fill:#809653;}
	.st34{fill:#86A853;}
	.st35{fill:#C4D092;}
	.st36{fill:#76913F;}
	.st37{fill:#8CA054;}
	.st38{fill:#E3E6C1;}
	.st39{fill:#DFE8B1;}
	.st40{fill:#3A5812;}
	.st41{fill:#D4E267;}
	.st42{fill:#C1CD8F;}
	.st43{fill:#DCEEA6;}
	.st44{fill:#7F9647;}
	.st45{fill:#4B6829;}
	.st46{fill:#52751E;}
	.st47{fill:#4C6C15;}
	.st48{fill:#537524;}
	.st49{fill:#8FA956;}
	.st50{fill:#8FAF51;}
	.st51{fill:#40631E;}
	.st52{fill:#AACF6A;}
	.st53{fill:#839E3F;}
	.st54{fill:#B1C47C;}
	.st55{fill:#6F8A31;}
	.st56{fill:#98A95D;}
	.st57{fill:#A5B356;}
	.st58{fill:#95AD46;}
	.st59{fill:#DDECA3;}
	.st60{fill:#1B380A;}
	.st61{fill:#78933C;}
	.st62{fill:#304B0D;}
	.st63{fill:#9FBD50;}
	.st64{fill:#8EB043;}
	.st65{fill:#648536;}
	.st66{fill:#7F943F;}
	.st67{fill:#699534;}
	.st68{fill:#617E40;}
	.st69{fill:#A8C459;}
</style>
<linearGradient id="SVGID_1_" gradientUnits="userSpaceOnUse" x1="261.9612" y1="408.3078" x2="335.9315" y2="191.2634">
	<stop  offset="0.5952" style="stop-color:#FFF76A;stop-opacity:0.9628"/>
	<stop  offset="1" style="stop-color:#00D437"/>
	<stop  offset="1" style="stop-color:#4C00E9"/>
</linearGradient>
<polygon class="st0" points="328.9,215.2 158.6,290.1 364,530.5 "/>
<ellipse class="st1" cx="249.5" cy="322" rx="34.7" ry="12.7"/>
<g>
	<path class="st2" d="M295.7,276.2c0.6,0.3,1.3,0.6,1.9,1c0,1.7,0,3.3,0,5c-1.7,2.6-4.9,3.1-7,5.1c-1.6,0.2-3.3-0.1-4.3,1.6
		c0.8,1.1,1.8-0.6,2.6,0.3c-0.9,2,2.3,5.3-2.1,6.1c-1.6,0.5-4.3-1.9-4.6,1.8c-0.2,0.1-0.4,0.2-0.6,0.3c-0.6,0.3-1.3,0.5-1.9,0.8
		c-1.7,1-2.6,0.1-3.4-1.3c-1.5-2.4-0.2-4.7,0.2-7c0.7-0.7,1.7-1.3,1.8-2.4c0.1-0.4,0.4-0.8,0.8-1c0.6-0.3,1.3-0.4,1.9-0.5
		c2.7-1,5.1-2.5,8.3-2.7C293.5,283.3,293.8,278.9,295.7,276.2z"/>
	<path class="st3" d="M260.6,293.1c-0.6,0-0.9-0.3-1-0.9c-1.9-3.3-4.9-5.3-8.5-6.4c-1.1-1-2-2.1-2.6-3.5c-0.7-2.7-0.5-5.4,0.7-7.9
		c1.2-0.8,1.7,0.2,2.2,1c3.5,5.4,3.7,5.5,9.5,2.3c0.8-0.5,1.6-1,2.6-1c5.5,2.3,10.2,5.8,15,9c0.2,0.4,0.3,0.9,0.1,1.4l-0.2,0.3
		c-2,2-4.7,2.2-7.2,2.6c-2,0.3,0.5,0.7-0.1,0.9c0.4,1.2,0.3,2.4-0.2,3.5c-1.3,1.7-2.8,1.9-4.5,0.6c-1.2-1.1-1.1-4.5-4.2-2.3
		C261.9,292.8,261.3,293.1,260.6,293.1z"/>
	<path class="st4" d="M269.4,308.1c3.9,5.3,3.3,9.4-1.9,13.9c-1,0.9-2.1,0.9-2.9-0.2c-0.4-0.6,0.5-3.2-1.2-0.6
		c-1.6,2.4-3.6,2.5-5.9,1c-3.9-3.1-6.1-6.6-2.1-11.2c1.5-1.2,2.5-3.1,4.8-3.1c1.9,0,3.9,0.3,5.7-0.8
		C267.2,306.4,268.7,306.1,269.4,308.1z"/>
	<path class="st5" d="M263.7,277.1c-0.7,0.3-1.4,0.7-2.1,1c-0.9-0.1-1.6-0.5-2.2-1.1c-2.6-3.2-5.7-4.9-9.9-4
		c-4.6,3.7-8.9,7.6-12.1,12.6c-0.6,1.1-1.4,2-2.8,2c-4.5-2.9-4.6-4.1-0.9-7.6c1.4-1.4,3-2.5,4.8-3.4c2.5-1.3,3.2-3.6,3.4-6.2
		c0.1-1,0.3-1.8,0.8-2.7c0.3-0.4,0.6-0.7,1-0.9c1.7,0.1,3.5,0.9,5.1-0.4c4-1.4,8.2-0.2,12.3-1c3.5,1.2,1.2,4.6,2.4,6.6
		c1.1,1.5,3.4-0.1,4.3,1.8C267.2,275.9,263.6,274,263.7,277.1z"/>
	<path class="st6" d="M254.6,251.3c-1.5,2.3-3.1,4.6,0,6.9c0.8,1,0.5,1.8-0.5,2.4c-3.8,0.2-4.9-3.5-8.1-5.4c0.7,3.6,0.9,6.9-3.7,7.3
		c-2.2-0.6-4.7-0.6-5.9-3.1c2.3-2.2,1.1-3.7-1.1-4.9c-1.2-1.6-2.2-3.2-2.1-5.2c0.3-0.7,0.7-1.2,1.4-1.6c1.8-0.7,3.3-0.1,4.4,1.3
		c1.3,1.6,0.9-0.2,1.3-0.6c1.8-1.4,3.2,1.3,5,0.5c1.9,0.2,2.6,2.9,4.8,2.4c0.8-0.5,1.4-1.5,2.6-1.5
		C253.5,250,254.3,250.4,254.6,251.3z"/>
	<path class="st7" d="M295.7,276.2c-0.2,6.1-2.8,9.2-8.7,8.7c-2.9-0.2-3.4,4.7-6.5,2.1c-1.5-4.4,0-6.9,5.2-8.9
		C288.9,276,291.4,271.3,295.7,276.2z"/>
	<path class="st8" d="M285.8,278.1c-1.7,3-6.1,4.4-5.2,8.9c-0.6,0-1.2-0.1-1.8-0.1c-0.1-0.3-0.1-0.6-0.1-0.8
		c-0.2-3.7-0.8-7.2-3.2-10.2c-1.6-2.1,0.2-4.5-0.7-6.7c-0.1-0.9,0.3-1.5,1-2c2.9,0.3,6.1-1.2,8.8,1
		C286.2,271.3,285.8,274.7,285.8,278.1z"/>
	<path class="st9" d="M274.7,269.2c1-0.4,2.4-0.5,1.7,1c-1.4,2.9-0.3,5.1,1.4,7.2c2.3,2.8,2.5,5.6,0.9,8.7c-5.3-2.4-10.2-5.5-14.9-9
		c-0.6-0.9-1.2-1.8-2.2-3.1c2.3,0,4.3,0,6.3,0c1.7,1.5,3.3,3.1,5.4,5C273.7,275.5,272.4,272,274.7,269.2z"/>
	<path class="st10" d="M218.7,296.2c5.7-1.3,11.7-1.4,16.8-4.9c1.8,3.5-2.8,3.7-3.1,6.1c-0.2,0.8-0.5,1.6-0.9,2.4
		c-0.4,0.8-0.9,1.5-1.3,2.3c-1.9,2.8-0.8,6.2-1.7,9.2c-0.2,0.4-0.5,0.8-0.9,1c-0.8-3.6-4.2-4.6-6.7-6.3c-1.6-2.1-3.1-4.3-0.7-6.8
		c1.5-1,3.2,0,5.2-0.6c-2.2-0.4-4.1-0.2-6,0C218.2,297.9,217.8,297.3,218.7,296.2z"/>
	<path class="st11" d="M253.8,291.8c2,6.8,3.6,13.6-4.1,18.2c-1.9-0.4-2.8-1.6-2.4-3.6c1.5-3.6-1.8-4.9-3.4-7.1
		c-0.9-0.6-0.9-1.5-0.5-2.4c1.9-1.2,3.6-2.7,5.8-3.2C251.3,294.4,252.2,292.3,253.8,291.8z"/>
	<path class="st12" d="M249.6,294.1c-1.8,1.1-2.9,3.6-5.6,3.2c-0.7,0.3-1.3,0.7-2.1,0.7c-2.3-0.2-3.9-1.6-5.2-3.4
		c-0.8-1.1,0.4-2.5-0.5-3.5c-0.6-1-1.1-2-1.7-3c-0.3-0.2-0.4-0.4-0.4-0.7c0.1-0.3,0.1-0.4,0.2-0.4c1.1-0.3,1.7-1,2.2-2
		c0.7-0.9,1.1-2.1,1.9-2.8c1.2-1,2.5-2.5,4.2-1.2c2,1.4,0.6,2.8-0.1,4.2c-0.1,1.4-4.3,2.1-0.6,4c2.9,0.8,6.4-0.9,8.9,2
		C251.4,292.7,251,293.6,249.6,294.1z"/>
	<path class="st13" d="M222.4,287.1c-2.6,0.1-4.8-2.1-7.4-0.5c-0.8-2.9,1.3-4.4,1.9-6.4c1.4-1,2.4-2.7,4.2-3.1
		c2.1-0.4,4.1,0,6.1,0.5c1.9,0.3,4.1-0.1,5.7,1.6c0.4,1,0.3,2.2-0.8,2.3c-4.8,0.3-1.7,2.4-1.1,4c-2.2,3.1-5,1.2-7.3,0.5
		C221.7,285.5,223.1,287.2,222.4,287.1z"/>
	<path class="st14" d="M234.6,248.2c-0.3,0.3-0.6,0.6-0.9,1c-2.6-1.6-2.2-4.5-3.1-7.1c-0.4,1.5,0.6,3.4-1.2,4.4
		c-1.7-4.3-1-8.2,1.3-12.1c3.4,0.8,1,3.5,1.6,5.2c-0.2-1.7,0.3-2.5,2.1-2.3c0,1.8,0.9,3,2,4.3c1.8,2.1,3.4,2.9,5.3,0.1
		c0.7-1,1.8-1.8,2.7-2.7c2.9,0.5,1.3,2.8,1.6,4.3c-0.6,1.7-2.9,3-1.5,5.3c0,0.2,0,0.4,0,0.7c-2.1,2.8-2.5-1.5-4-1
		C238.6,249.1,236.6,245,234.6,248.2z"/>
	<path class="st15" d="M249.6,232.1c3.8-5.1,5.2-5.5,13-2.8c-9.9,2-7.3,9.5-7.8,15.6c0,1.5,0,2.9-1.9,3.4c-1.2-0.5-1.4-1.8-2.1-2.7
		c-0.7-1.2-1.5-2.4-1.7-3.8c0.1-2,1-3.7,1.5-5.6C251.1,234.6,251.8,233,249.6,232.1z"/>
	<path class="st16" d="M260.7,309.1c-2.2-0.4-3.5,1.4-5.3,2c1.5-2.5,2.5-5.4,5.3-7c2.6-0.4,4.2-1.9,4.8-4.4c3.4-3,9.4-2.8,12.3,0.6
		c-0.7,0.6-1.3,1.3-2,1.9c-2,0.6-4.3,0.6-4.9,3.4c0.1,0.3,0,0.5-0.2,0.7C266.8,305.6,263.9,307.9,260.7,309.1z"/>
	<path class="st17" d="M229.5,246.4c0.1-1.6,0.2-3.3,0.3-5.2c4,1.5,2.4,5.5,4,8c0.6,1.7,1.3,3.4,1.9,5.1c2,1.8,1.3,3.3-0.5,4.6
		c-1.8,1.1-3.4,2.7-5.7,2.8c-1.7-0.4-3.5-0.8-3.3-3.1c0.2-0.7,0.6-1.3,1.2-1.7c3.8-1,4.3-3.4,2.5-6.6
		C229.7,248.9,229.6,247.6,229.5,246.4z"/>
	<path class="st18" d="M277.6,300.1c-4.1-0.4-8.4-3.7-12,0.9c-0.7,0.6-1.4,0.6-2.1,0.1c0.6-3.2-1.2-5.6-2.9-8c0.3-0.3,0.7-0.7,1-1
		c2.3-0.8,4.2-0.7,5.1,2c1.3,0.9,2.6,1,3.9,0c1.5,2.1,4.8-1,6,2c0.6,1.3,1.7,1.8,3.1,2C279,298.9,278.3,299.5,277.6,300.1z"/>
	<path class="st19" d="M230.2,285.2c-1.9-0.3-3.4-1.9-2.9-3.3c0.8-2.6,3.9-0.1,5.4-1.7c0.4-1.2,0.3-2.5,1-3.6
		c0.4-0.8,0.8-1.6,1.3-2.2c2.3-1.7,4.3-4,7.4-4.3c1.2,3.6-0.1,6.4-3.5,7.8c-1.8,0.7-2.9,2.1-4.3,3c-3.6,2.2-2.5,4.1-0.2,6.2
		c0,0.4,0.1,0.7,0.1,1.1c-0.6-0.1-1.3-0.2-1.9-0.2C231.4,287.4,231.2,286,230.2,285.2z"/>
	<path class="st20" d="M226.7,258.2c-0.2,2.2,2.5,1.4,3,2.9c-0.9,3.7-3.3,6.7-4.4,10.2c-1.4,2.3-3.2,4.4-4.7,6.7
		c-1.3,0.7-2.6,1.4-3.8,2.1c3-6.6,4.6-13.9,8.7-20C225.1,259,224.8,258,226.7,258.2z"/>
	<path class="st21" d="M253.6,260.2c0.8-0.5,1-1.2,1-2.1c0.4,0.2,0.7,0.4,1.1,0.6c0.8,1.1,2.5,1.1,2.9,2.8c1.3-1.5,2.3-3,3.5-4.1
		c1.5-0.5,2.9-0.5,3.8,1c0.2,2.5-0.3,5.1,0.5,7.6c-0.5,2.2-3.5,3.2-2.9,6c-2-1.5,0.2-5.1-3-5.9c-2.1-0.6-3.9-1.7-5.4-3.3
		C254.4,262.1,253.2,261.6,253.6,260.2z"/>
	<path class="st22" d="M252.8,248.3c1.1-0.9,0.4-2.7,1.9-3.3c4.2,0,8.4,0,12.6,0c0.1,0.3,0.1,0.6,0.2,0.9c-4.3,1.8-8.6,3.6-12.9,5.4
		c-0.9-0.1-1.7-0.2-2.2-1.2C252,249.4,252.1,248.8,252.8,248.3z"/>
	<path class="st23" d="M249.6,232.1c1.4,1.5,2-1.7,3.6-0.3c-1.2,3.2-1.3,7-3.6,10.1c-0.5,1.2-1.6,1.4-2.7,1.7
		c-0.5,0-0.9-0.1-1.2-0.4c-2-1,1.1-3.3-1.1-4.2C246.5,236.9,248.4,234.8,249.6,232.1z"/>
	<path class="st24" d="M257.5,322.2c2-0.3,4.6,0.9,5.2-2.7c0.2-1.2,2.3-1.6,2.6-1.6c3.7,1.1-3.4,4.2,2.2,4.1
		C261.9,327.5,260.3,327.5,257.5,322.2z"/>
	<path class="st25" d="M238.7,315.1c-0.9,3.4-3.7,3.2-6.2,2.9c-3.4-0.4-4.6-2.8-4.9-5.8c0.2-0.1,0.3-0.1,0.5-0.2
		c0.5-0.1,0.9-0.1,1.3,0.2c2.6,2.6,4.9-0.5,7.3-0.5c0.5,0,0.9,0.1,1.3,0.3C238.7,312.9,239.3,313.8,238.7,315.1z"/>
	<path class="st26" d="M284.6,268.2c-1.3,0.6-2.7-1.2-4.3,0.8c-1.7,2.2-2.3-2.7-4.5-1.8c1.2-3,3.6-3.6,6.4-3.1
		C284.3,264.5,285,266.1,284.6,268.2z"/>
	<path class="st27" d="M241.2,297.3c0.9,0,1.9,0,2.8,0c-0.2,0.8-0.3,1.5,0.4,2.1c1.9,1.9,3.2,4,3.3,6.8c0,1.6,1.3,2.6,2,3.8
		c-0.6,0.8-0.8,2-2.1,2.1c-1.5-1.2-2-3.1-3-4.7C243.1,304.2,240.9,301.2,241.2,297.3z"/>
	<path class="st28" d="M230.2,285.2c1.5,0.2,2.3,1.2,2.4,2.7c-3.4,0.1-6.9,0-10.3-0.8c0.4-0.6-2.1-1.4,0.3-1.9
		C225.2,284.8,227.7,286.9,230.2,285.2z"/>
	<path class="st29" d="M264.6,254.1c1.3-1.8,2.6-3.6,4.2-6c1.1,2.8,0.7,4.9-0.3,7c-0.8,1.1-1.4,3-3.2,2.3
		C263.6,256.9,264.3,255.3,264.6,254.1z"/>
	<path class="st30" d="M245.6,307.2c1.2,1.4,2.1,3,2,4.9c-1,0-1.9,0.2-2.5,1.2c-1.6,0.5-3.2,0.6-4.5-0.7
		C239.4,308.1,242.8,308,245.6,307.2z"/>
	<path class="st31" d="M261.7,258.2c2.4,2.1-3.2,3.2-0.6,5.5c-2.7-0.7-4.4-2.5-5.4-4.9c1.3-0.5,2.7-1,4-1.4
		C260.3,257.7,261.2,257.4,261.7,258.2z"/>
	<path class="st32" d="M284.4,299.1c-1.3,3.1-2.6,6.2-4.3,10.3c-1-4.9,1.7-8.2,1.5-11.9c0,0,0-0.5,0-0.5
		C283.3,296.6,284,297.6,284.4,299.1z"/>
	<path class="st33" d="M288.9,289.2c-1.5-0.3-0.8,3.5-3.1,1.7c-0.7-0.6-2.2-1-1.6-2.1c0.7-1.2,1.6-2.5,3.3-2.6
		c1.2,0,2.3-0.1,3.1,1.1C290.4,288.2,289.9,288.9,288.9,289.2z"/>
	<path class="st34" d="M260.7,309.1c2.8-2.5,5.4-5.6,9.8-3c-0.4,0.7-0.8,1.4-1.2,2c-1.4-1-2.6-0.9-3.7,0.5
		C264.2,310.5,262.3,308.8,260.7,309.1z"/>
	<path class="st35" d="M220.6,299.2c-1.9,2.3,0.2,4.5,0.2,6.7c-4.6-3-5.1-5.3-2.1-9.7c0,0.8,0.2,1.5,1,1.9
		C220.2,298.3,220.5,298.6,220.6,299.2z"/>
	<path class="st36" d="M261.7,258.2c-0.7-0.3-1.3-0.6-2-0.8c1.6-1.1,3.3-2.2,4.9-3.2c0.3,3.8,2,2.8,3.9,1.1
		c-0.3,1.6-0.6,3.3-0.9,4.9c-1.1,0.5-1.6-0.1-1.8-1.1C264.6,257.7,263.1,258.2,261.7,258.2z"/>
	<path class="st37" d="M284.4,299.1c-0.9-0.7-1.8-1.4-2.8-2.1c1.4-1.6-0.8-3.4,0.6-5.3c1.6,1.2,2.7,3.1,4.7,3.6
		C286,296.6,285.2,297.8,284.4,299.1z"/>
	<path class="st38" d="M226.7,258.2c-1,0.3-1.1,1.1-1.2,2c-2.8-1.8-2.1-3.6,0.1-5.4c1.3-1,2.6-1.9,3.9-2.8c1.7,2.5-0.3,3.8-1.8,5.1
		C227.4,257.5,227.1,257.9,226.7,258.2z"/>
	<path class="st39" d="M234.5,237.3c-1.5,0.4-1.6,1.9-2.4,3c-1.2-1.9,0.5-4.4-1.3-6c0.4-1.5,1.4-2.6,2.8-1.9
		C235.6,233.5,234.4,235.6,234.5,237.3z"/>
	<path class="st40" d="M249.6,294.1c0.3-1,0.6-2,0.9-2.9c-0.9-1.3-0.8-2.5,0.6-3.4c1.3-0.4,2,0.3,2.5,1.4c0.1,0.9-0.6,1.9,0.3,2.7
		C252.2,295.2,251.2,295.8,249.6,294.1z"/>
	<path class="st41" d="M227.8,257.2c0.3-1.8,2.1-3.1,1.8-5.1c0.1-0.6,0.2-1.3,0.3-1.9C234.2,254.9,234,255.7,227.8,257.2z"/>
	<path class="st42" d="M265.8,259c0.6,0.4,1.2,0.7,1.8,1.1c-0.1,2.1,0.9,4.3-1.1,6.1C263.3,264.1,264.4,261.5,265.8,259z"/>
	<path class="st43" d="M236.2,291.1c3.9,0.5,1.1,2,0.5,3.2c0,0.2-0.1,0.5-0.1,0.7c-1.1,2-2.4,3.5-5,2.3c-1-3.4,4.4-2.7,3.8-5.9
		C235.7,291.1,235.9,291.1,236.2,291.1z"/>
	<path class="st44" d="M253.6,289.1c-0.7-0.4-1.4-0.8-2.1-1.2c-0.7-0.9-0.7-1.9,0.1-2.7c3.6,1.3,7,2.8,8,7c-1.6-1.5-3-3.2-4.7-4.4
		C253.2,286.5,254,288.6,253.6,289.1z"/>
	<path class="st45" d="M240.6,312.1c1.5,0.4,3,0.8,4.5,1.2c-1.7,2-4,2.2-6.4,1.8c-0.4-0.9-0.8-1.9-1.1-2.8
		C238.5,311.3,239.5,311.4,240.6,312.1z"/>
	<path class="st46" d="M263.5,301.1c0.7,0,1.4,0,2.1-0.1c-0.2,2.5-3.1,4.2-5,3C261.4,302.8,262.2,301.7,263.5,301.1z"/>
	<path class="st47" d="M270.7,305.4c-1-4.9,2.3-3.6,4.9-3.4C274.6,304.1,272.1,304,270.7,305.4z"/>
	<path class="st48" d="M276.6,296.2c-0.8-0.2-2-0.8-2.2-0.6c-3.6,5.2-2.5-1.2-3.8-1.5c0-1.3,0-2.7,0-4c2-0.4,4-1.6,5.9,0.1
		c0,1,3.9,1.4,0.4,2.9C274.9,294,278.3,295.4,276.6,296.2z"/>
	<path class="st49" d="M276.6,290.3c-2,0-4-0.1-5.9-0.1c-0.2,0-0.4,0-0.5-0.1c-0.2-0.2-0.3-0.4-0.5-0.6c3-0.7,6-1.5,9-2.2
		c0.4,0.8,2.1,1,1.5,2.2C279.4,290.8,277.8,289.9,276.6,290.3z"/>
	<path class="st50" d="M241.6,285.2c-0.6-1.4,2.3-2.1,0.9-3.3c-1.5-1.2-2.7,0.2-3.7,1.3c-0.7,0.7-1.4,1.3-2.1,2
		c0.2-1.7,0.9-3.1,2.4-4.1c3.4-2.1,6.1-4.8,7.6-8.6c0.8-1.8,1.9-1.5,3-0.3c0.6,0.7,0.6,1.3,0,2c0,2.7-0.1,5.4-0.1,8.1
		c-2,1.8-3.5,4.6-6.9,3.9C242.3,285.8,241.9,285.5,241.6,285.2z"/>
	<path class="st51" d="M249.7,274.1c0-0.7,0-1.3,0-2c6.1-2.2,8.9,2.2,12,6C255,282.9,252.8,282.7,249.7,274.1z"/>
	<path class="st52" d="M242.8,285.3c3,0.5,3.9-3.3,6.8-3.1c0.7,1,1.4,2,2,3c0,0.9-0.1,1.8-0.1,2.7c-1.2,0.8-0.8,2.1-1,3.3
		c-2.8-2-6.2,1.3-8.9-1C240.8,288.2,241.5,286.7,242.8,285.3z"/>
	<path class="st44" d="M266.7,294.1c-1.2-1.8-3.6-0.8-5.1-2c0.8-1.5,2-2.2,3.7-1.8C267.3,290.9,266.4,292.8,266.7,294.1z"/>
	<path class="st53" d="M253.6,260.2c0.7,0.6,1.4,1.2,2.1,1.9c-1.7,2.6-3.8,4.7-7.1,5.1c-1.5,3.9-3.2,0.9-4.8,0.1
		c-1.7-1.3-1.9-3.1-1.3-5c4.9-1.9,1.2-6.2,2.6-9.6C248.1,255.2,250.8,257.7,253.6,260.2z"/>
	<path class="st54" d="M234.6,261.1c0.1,3.1-1,7.5,0.6,9.1c1.7,1.6,4.9-3.2,8.3-2.2c-0.3,0.7-0.7,1.4-1,2.1
		c-2.3,1.7-4.6,3.4-6.9,5.1c-0.6,0.5-1.2,0.7-2,0.3c-1-1.1,0.1-2.7-0.8-3.9c-0.5-2.4-1-4.8-1-7.3C232.3,262.8,232.4,261,234.6,261.1
		z"/>
	<path class="st55" d="M248.7,267.2c3.2-0.5,3.4-5.2,7.1-5.1c1.6,1.4,3.2,2.7,4.8,4.1C256.7,267.9,252.6,266.8,248.7,267.2z"/>
	<path class="st56" d="M246.5,243c0.8-1,2-0.8,3-1.1c0.7,1.1,1.4,2.2,2.2,3.3c0.7,2.4-0.3,4.6-1,6.9c-0.1,1.2-0.5,1.9-1.8,0.9
		c-1.5-1.2-2.9-2.5-4.3-3.8c0,0,0.1-0.3,0.1-0.3C244.7,246.8,246.6,245.2,246.5,243z"/>
	<path class="st57" d="M234.6,248.2c1.1-3.8,1.1-3.8,6,0c-0.2,1.5,1.8,2.9,0.1,4.8C238.5,251.5,238.4,247.4,234.6,248.2z"/>
	<path class="st58" d="M236.7,259.1c-0.4,0-0.8-0.1-1.2-0.1c-0.5-0.1-0.8-0.4-1-0.9c1.5-1,1.5-2.4,1-3.9c1.7,0.3,3.7,0.4,4,2.7
		C239.8,259,238.2,259.1,236.7,259.1z"/>
	<path class="st59" d="M250.7,252.1c-0.1-2.3,0.2-4.7,1-6.9c1.4,0.7,0.9,2,1.2,3.1c-0.1,0.6-0.3,1.2-0.4,1.8
		C251.9,250.8,251.3,251.4,250.7,252.1z"/>
	<path class="st60" d="M240.6,312.1c-1,0.1-2,0.1-3.1,0.2c0,0-0.4,0-0.4,0l-0.4,0c-1.3,0.2-1.7-0.8-2-1.7c-0.2-1.6-1.1-2.6-2.6-3.2
		c-3-1.2-3.8-3.3-2.4-6.3c0.4-0.6,0.8-1.3,1.2-1.9c2.2-1.3,5.2-1.6,6-4.7c0,0,0-0.3,0-0.3c1.5,1,3,2,4.4,3c1.5,3.3,2.9,6.6,4.4,9.9
		C244.9,309.8,240.5,308.6,240.6,312.1z"/>
	<path class="st30" d="M229.6,301.1c-0.3,3,0.7,5.6,4,5.7c3.1,0.1,1.7,2.1,2,3.4c-1.9,2.3-4.2,3.1-7,2.1c-0.2-0.1-0.4-0.1-0.6-0.2
		C227.9,308.3,226.2,304.3,229.6,301.1z"/>
	<path class="st61" d="M220.6,299.2c-0.3-0.3-0.6-0.7-0.9-1c2.5-2,5.7-0.3,8.4-1.4C226.6,301,223.8,300.5,220.6,299.2z"/>
	<path class="st30" d="M236.8,294.5c0.4,4.7-2.6,4.9-6,4.7c0.3-0.7,0.6-1.3,0.8-2C233.4,296.3,235.1,295.4,236.8,294.5z"/>
	<path class="st62" d="M247.7,306.1c-1.1-2.3-2.2-4.5-3.3-6.8c3.3,0.9,4.1,4,5.1,6.6C249.8,306.8,248.3,306.3,247.7,306.1z"/>
	<path class="st63" d="M242.8,285.3c0,1.7-0.2,3.3-1.2,4.8c-1.6,0-2.7-0.8-3.4-2.4c1.1-0.9,2.3-1.7,3.4-2.6
		C242,285.2,242.4,285.3,242.8,285.3z"/>
	<path class="st64" d="M233.7,275c0.6,0,1.2,0.1,1.8,0.1c-0.3,0.6-0.7,1.3-1,1.9c-2.4,1.4-5.6-0.2-7.8,2c-1.9-1-4-0.9-6-1
		c-0.9-3.5,2.6-4.6,3.7-7c3.3-1.7,4.3-5.9,8.1-7c1,2.6,1.1,5.3,1.1,8c-1,1.3-1.8,2.8-3.8,2.4C231.1,274.9,232.5,273.9,233.7,275z"/>
	<path class="st65" d="M226.7,279.1c1.7-4.1,4.9-2.8,7.8-2c-0.6,1-1.2,2.1-1.8,3.1C231,278.2,228.7,279.6,226.7,279.1z"/>
	<path class="st66" d="M246.5,243c1.7,2.7,0.2,4.4-1.8,5.9c-5-2.7-1.3-4.1,0.9-5.8C245.9,243.1,246.2,243,246.5,243z"/>
	<path class="st67" d="M232.5,264.1c-2.7,2.4-3.6,6.8-8.1,7c1.3-3.6,2.5-7.2,5.4-10c1.6-1,3.2-2,4.9-3.1c0.3,0.3,0.6,0.6,1,0.9
		c-0.3,0.7-0.6,1.5-1,2.2C233.9,262.1,233.2,263.1,232.5,264.1z"/>
	<path class="st68" d="M228.6,312.2c2.3-0.7,4.7-1.4,7-2.1c0.4,0.7,0.7,1.4,1.1,2.1C234,312.2,231.2,318.7,228.6,312.2z"/>
	<path class="st69" d="M233.7,275c-1.6,0-3.2,0-5.6,0c2.2-1.2,3.9-2,5.5-2.9C234.9,273.1,233.3,274.1,233.7,275z"/>
</g>
</svg>
